<svg width="145" height="168" viewBox="0 0 145 168" fill="none" xmlns="http://www.w3.org/2000/svg">
<g clip-path="url(#clip0_1_3)">
<path d="M73.59 41.38C74.86 38.07 75.72 35.8 76.61 33.54C80.87 22.69 87.9 14.23 98.06 8.39C103.6 5.21 109.47 2.82 115.47 0.700004C116.61 0.300004 117.84 0.0500041 119.05 4.06802e-06C121.19 -0.0999959 123.02 0.820004 123.74 2.84C124.56 5.11 125.25 7.53 125.42 9.92C126.21 20.76 123.74 30.78 117.27 39.67C116.41 40.85 115.46 41.97 114.59 43.15C113.91 44.08 114.17 45.2 115.1 45.55C115.55 45.72 116.04 45.8 116.51 45.94C126.53 48.96 133.42 55.58 137.58 64.96C143.23 77.69 145.58 90.86 143.69 104.93C141.46 121.58 135.62 136.55 125.69 150.01C121.58 155.58 116.67 160.26 110.67 163.8C104.72 167.31 98.48 168.64 91.69 166.77C87.92 165.73 84.11 164.86 80.34 163.86C73.85 162.14 67.43 161.52 60.94 164.08C54.89 166.46 48.5 166.38 42.13 166.18C35.55 165.98 29.74 163.69 24.57 159.68C16.44 153.37 10.62 145.34 7.03998 135.74C2.89998 124.67 0.459976 113.16 0.0499763 101.4C-0.280024 91.86 1.08998 82.36 4.24998 73.27C6.53998 66.69 10.44 61.13 15.68 56.48C19.67 52.95 24.34 50.91 29.54 50.37C38.15 49.48 46.6 50.34 54.76 53.47C58.63 54.95 62.56 56.26 66.49 57.58C67.41 57.89 68.53 56.92 68.44 56C68.31 54.79 68.22 53.56 67.89 52.4C64.61 41.22 59.68 30.97 51.22 22.69C50.53 22.02 49.73 21.3 49.42 20.44C49.13 19.62 49.09 18.39 49.52 17.72C49.95 17.05 51.09 16.51 51.95 16.49C55.2 16.38 57.4 18.56 59.41 20.63C63.5 24.84 67.25 29.35 69.98 34.62C70.98 36.56 72.04 38.48 73.59 41.38V41.38ZM136.41 97.05C136.68 86.74 134.72 77.45 130.9 68.62C129.56 65.53 127.65 62.55 125.43 60.01C119.57 53.27 112.23 51.08 103.63 54.1C100.87 55.07 98.21 56.35 95.44 57.29C90.13 59.09 84.82 60.91 79.42 62.43C72.93 64.26 66.4 64.18 59.97 61.88C56.98 60.81 53.97 59.79 50.96 58.81C45.82 57.13 40.54 56.14 35.12 56.22C25.89 56.35 18.58 59.92 13.99 68.28C12.11 71.72 10.39 75.2 9.48998 79.06C7.09998 89.37 5.91998 99.68 7.91998 110.26C9.37998 117.96 10.92 125.6 13.81 132.9C16.92 140.75 21.52 147.58 27.95 153.12C32.19 156.76 37.13 158.58 42.7 158.82C48.12 159.05 53.41 158.48 58.56 156.63C65.86 154.01 73.33 153.61 80.93 155.29C85.22 156.24 89.62 156.75 93.83 157.95C99.23 159.49 103.96 158.32 108.47 155.41C113.26 152.32 117.1 148.22 120.4 143.63C130.53 129.54 135.72 113.76 136.4 97.08L136.41 97.05ZM77.11 51.73C77.28 52.24 77.5 52.92 77.72 53.6C78.51 53.23 79.55 53.06 80.05 52.44C86.83 44.1 93.59 35.74 100.25 27.3C104.94 21.36 109.47 15.29 114.03 9.25C114.2 9.03 114 8.48 113.87 8.12C113.82 8 113.4 7.9 113.22 7.97C110.07 9.27 106.88 10.48 103.81 11.95C88.03 19.47 80.88 33.15 77.28 49.33C77.12 50.04 77.18 50.79 77.12 51.73H77.11ZM118.32 16.77C118.32 16.12 118.36 15.87 118.32 15.64C118.21 15.17 118.05 14.72 117.91 14.26C117.31 14.51 116.49 14.59 116.13 15.04C109.73 23.05 103.39 31.12 97.01 39.15C94.13 42.78 91.17 46.36 88.28 49.99C88.06 50.27 88.01 50.97 88.21 51.21C88.46 51.51 89.03 51.58 89.48 51.67C89.7 51.72 89.97 51.64 90.19 51.55C101.83 47.35 110.11 39.48 115.4 28.4C117.2 24.63 118.16 20.58 118.31 16.78L118.32 16.77Z" fill="black"/>
<path d="M17.38 94.74C17.2 85.94 19.54 77.85 24.56 70.59C25.39 69.4 26.39 68.3 27.47 67.33C27.94 66.9 29.28 66.59 29.42 66.79C29.93 67.5 30.5 68.58 30.3 69.31C29.77 71.17 28.94 72.96 28.05 74.69C24.82 80.94 23.57 87.56 24.03 94.55C24.16 96.5 24.21 98.46 24.23 100.41C24.24 101.38 24.17 102.36 24.04 103.33C23.83 104.86 22.48 106.1 21.1 106.1C19.72 106.1 18.79 105.34 18.33 104.12C17.91 102.99 17.51 101.79 17.42 100.6C17.27 98.66 17.38 96.7 17.38 94.74V94.74Z" fill="black"/>
</g>
<defs>
<clipPath id="clip0_1_3">
<rect width="144.33" height="167.61" fill="white"/>
</clipPath>
</defs>
</svg>
