<svg width="167" height="170" viewBox="0 0 167 170" fill="none" xmlns="http://www.w3.org/2000/svg">
<g clip-path="url(#clip0_1_71)">
<path d="M69.42 66.19C65.74 67.71 62.88 69.55 60.01 71.35C58.35 72.39 56.73 73.48 55.11 74.57C46.14 80.64 36.79 80.55 27.23 76.19C25.24 75.28 23.32 74.15 21.51 72.91C15.84 69.02 10.64 64.54 6.21999 59.28C4.20999 56.88 2.41999 54.13 1.20999 51.26C-1.68001 44.42 0.679986 37.97 7.04999 34.34C11.16 32 15.64 30.93 20.36 30.69C26.3 30.39 32.07 31.51 37.77 32.84C47.52 35.11 57.21 37.66 66.93 40.07C72.15 41.36 77.38 42.57 82.59 43.91C84.78 44.48 86.84 44.66 88.96 43.61C90.71 42.75 92.56 42.1 94.38 41.39C95.59 40.91 96.38 40.1 96.77 38.83C97.95 34.95 100.28 31.86 103.5 29.47C104.78 28.52 105.31 27.29 105.61 25.79C105.79 24.87 106.25 23.94 106.8 23.16C108.65 20.57 111.92 19.92 114.58 21.66C115.57 22.31 116.35 23.3 117.19 24.16C117.64 24.62 118.04 25.14 118.47 25.63C118.98 24.84 119.91 24.07 119.93 23.26C120.03 19.86 120.05 16.43 119.72 13.05C119.46 10.4 118.59 7.79999 118.07 5.16999C117.88 4.22999 117.74 3.20999 117.91 2.29999C118.14 1.03999 118.99 -0.0100054 120.36 -5.44977e-06C121.24 -5.44977e-06 122.31 0.369995 122.94 0.959995C123.61 1.57999 124 2.60999 124.26 3.52999C125.2 6.81999 125.99 10.14 126.92 13.43C127.95 17.1 127.87 20.63 126.07 24.1C125.41 25.38 125.03 26.84 124.79 28.27C124.69 28.83 125.17 29.85 125.66 30.09C127.39 30.96 129.21 31.75 131.08 32.22C131.83 32.41 133.04 31.93 133.65 31.34C135.41 29.65 136.95 27.74 138.61 25.94C139.79 24.66 141.14 23.7 142.93 23.37C149.69 22.13 156.5 21.66 163.36 22.09C164.68 22.17 165.63 22.94 165.98 24.25C166.34 25.61 165.24 27.15 163.73 27.52C163.49 27.58 163.26 27.65 163.02 27.69C159.39 28.22 155.77 28.74 152.14 29.27C150.45 29.52 148.76 29.82 147.06 30.01C143.67 30.38 141.19 32.22 139.07 34.73C138.23 35.73 137.71 36.78 138.43 38.03C139.15 39.27 139.73 40.72 141.58 40.64C142.55 40.6 143.55 40.51 144.5 40.64C146.64 40.95 147.99 42.23 148.61 44.31C149.25 46.46 148.59 48.8 146.78 50.21C141.95 53.98 141.85 53.93 140.91 58.42C140.24 61.65 138.65 64.41 135.84 66.2C133.96 67.39 133.43 68.89 133.22 71.03C132.96 73.67 132.19 76.29 131.35 78.82C130.83 80.39 131.13 81.55 131.83 82.94C139.31 97.77 146.84 112.58 154.09 127.52C156.21 131.88 157.78 136.57 159.09 141.26C160.48 146.26 160.45 151.4 158.79 156.43C156.6 163.09 151.98 166.45 145 166.01C142.61 165.86 140.1 165.33 137.94 164.34C128.97 160.2 121.07 154.47 114.44 147.12C111.64 144.02 109.74 140.31 108.36 136.33C106.79 131.8 106.53 127.23 107.87 122.65C108.76 119.61 109.93 116.65 110.94 113.64C111.95 110.63 112.97 107.62 113.89 104.58C114.59 102.26 114.07 101.84 111.46 102.37C110.26 102.61 109.05 102.77 107.86 103.06C106.28 103.44 104.04 102.31 103.23 104.16C102.75 105.24 104.04 106.98 103.81 108.31C102.97 113.32 103.24 118.49 101.32 123.36C98.51 130.49 94.6 136.94 89.92 142.93C84.51 149.87 79.02 156.77 71.99 162.21C68.7 164.76 65.31 167.22 61.29 168.48C52.32 171.29 44.28 169.01 37.36 163.16C27.67 154.97 25.01 144.15 27.13 132.02C27.71 128.7 28.97 125.42 30.36 122.32C35.09 111.77 41.35 102.18 48.95 93.46C53.73 87.97 59.2 83.74 66.57 82.34C69.21 81.84 69.16 81.62 69.11 78.92C69.06 76.72 68.98 74.52 69.02 72.32C69.06 70.45 69.27 68.57 69.44 66.19H69.42ZM11.88 52.56C11.91 52.99 11.86 53.43 11.99 53.83C12.06 54.03 12.43 54.14 12.66 54.29C12.63 54.08 12.66 53.83 12.55 53.68C12.3 53.34 11.98 53.05 11.69 52.73C11.82 50.58 12.05 48.42 12.03 46.27C12.02 45.12 11.72 43.91 11.25 42.85C11.03 42.35 10.16 42 9.52999 41.86C9.23999 41.79 8.65999 42.31 8.43999 42.69C6.35999 46.42 7.72999 50.31 11.87 52.57L11.88 52.56ZM137.93 155.51C137.6 155.21 137.32 154.84 136.94 154.65C136.77 154.56 136.42 154.84 136.16 154.95C136.38 155 136.59 155.05 136.81 155.09C137.25 155.17 137.68 155.24 138.12 155.31C140.86 158.62 144.45 159.09 148.37 158.28C149.86 157.97 151.25 156.12 150.75 155.2C150.09 153.97 148.83 153.9 147.67 153.86C146.99 153.83 146.22 154.04 145.63 154.39C143.2 155.82 140.56 155.56 137.93 155.51V155.51ZM85.04 79.15C85.04 79.64 85.02 80.12 85.04 80.61C85.28 85.07 86.43 86.28 90.74 87.95C102.34 92.43 115.51 81.46 114.76 69.22C114.7 68.18 113.92 66.75 113.05 66.28C108.94 64.08 105.2 61.43 101.81 58.26C101.02 57.52 100.11 57.56 99.12 57.97C90.68 61.54 84.93 70.16 85.03 79.15H85.04ZM95.55 111.36C95.74 108.22 95.37 104.37 92.36 101.34C90.83 99.8 89.29 98.21 87.53 96.95C82.49 93.35 76.77 91.18 70.77 89.95C68.21 89.42 65.44 89.66 62.8 89.9C60.77 90.08 59.52 92.4 60.23 94.34C60.73 95.7 61.31 97.11 62.2 98.22C69.23 106.9 77.5 113.92 88.37 117.38C94.88 119.45 95.51 119 95.55 111.36ZM125.48 60.13C126 60.13 126.74 60.17 127.47 60.13C130.56 59.94 131.89 58.88 132.73 55.99C133.64 52.83 133.53 49.73 132.33 46.65C131.75 45.15 130.95 44.08 129.17 44.23C127.11 44.4 126.25 43.47 125.7 41.43C124.77 37.94 123.67 37.37 119.91 37.93C118.36 38.16 117.21 38.15 115.94 37.01C111.96 33.42 107.52 34.19 105.28 38.61C103.86 41.41 103.62 44.29 104.89 47.09C105.79 49.06 106.9 51.08 108.38 52.62C112.96 57.35 118.48 60.28 125.49 60.15L125.48 60.13ZM55.06 97C54.02 97.9 53.18 98.43 52.6 99.16C46.86 106.47 46.41 105.84 53.16 112.74C60.93 120.69 70.26 126.35 80.33 130.84C87.7 134.13 86.71 134.83 91.16 126.94C92.1 125.27 91.65 124.07 89.8 123.79C79.95 122.33 72.25 116.99 65.26 110.36C61.21 106.53 57.42 102.47 55.06 97V97ZM73.18 149.85C72.96 149.46 72.83 148.97 72.51 148.69C72.17 148.39 71.66 148.27 71.21 148.1C58.51 143.34 47.25 136.41 38.2 126.16C38.04 125.98 37.82 125.71 37.65 125.73C37.25 125.77 36.67 125.84 36.51 126.11C36.01 126.92 35.64 127.82 35.27 128.7C34.14 131.44 34.59 133.64 36.76 135.92C44.96 144.54 55.09 150.2 65.59 155.33C66.29 155.67 67.66 155.5 68.28 155.01C69.97 153.67 71.43 152.04 72.96 150.5C73.11 150.35 73.11 150.07 73.19 149.84L73.18 149.85ZM43.96 112.42C43.75 112.54 43.49 112.62 43.34 112.79C40.51 116.07 40.35 118.75 42.85 121.96C43.45 122.73 44.12 123.45 44.82 124.12C54.13 133.07 65.3 139.03 77.05 144.02C78.06 144.45 78.94 144.22 79.63 143.36C80.24 142.6 80.86 141.84 81.42 141.04C82.29 139.79 82 138.81 80.48 138.19C66.66 132.58 54.64 124.47 45.19 112.78C44.97 112.5 44.37 112.53 43.95 112.41L43.96 112.42ZM54.81 162.53C56.21 162.04 57.81 161.54 59.36 160.9C59.69 160.76 60.01 160.16 60.01 159.77C60.01 159.38 59.69 158.81 59.35 158.64C50.93 154.34 42.58 149.95 35.52 143.5C35.29 143.29 34.5 143.27 34.44 143.39C34.25 143.78 34.12 144.32 34.23 144.73C35.31 148.74 36.89 152.51 39.73 155.65C43.7 160.06 48.89 161.74 54.81 162.52V162.53ZM53.77 51.22C54.13 51.15 55.6 51.24 55.88 50.7C56.53 49.45 55.09 48.73 54.42 47.81C52.17 44.69 49.18 42.94 45.36 42.3C42.01 41.74 38.74 40.74 35.43 39.96C34.72 39.79 33.99 39.65 33.27 39.63C31.98 39.61 30.88 40.02 30.31 41.31C29.72 42.64 30.35 43.79 31.19 44.59C32.22 45.57 33.48 46.4 34.78 46.97C40.63 49.5 46.77 50.92 53.76 51.21L53.77 51.22ZM132.78 111.86C132.5 112.46 132.06 112.93 132.13 113.3C133.51 120.57 136.47 127.16 141.02 132.99C141.88 134.09 143.19 134.88 144.39 135.68C145.3 136.29 146.38 136.04 147 135.22C147.54 134.51 147.92 133.55 148.02 132.66C148.09 132.02 147.61 131.29 147.31 130.63C145.55 126.9 143.69 123.21 142.02 119.44C140.88 116.87 139.24 114.96 136.57 113.92C135.25 113.4 134.05 112.56 132.79 111.86H132.78ZM77.36 82.68C77.36 80.04 77.21 78.08 77.4 76.16C77.59 74.25 77.88 72.26 78.57 70.49C81.31 63.48 85.72 57.83 92.49 54.23C93.77 53.55 95.18 53.06 96.35 52.23C97.58 51.36 96.98 50.01 96.63 48.89C96.25 47.68 95.29 47.7 94.32 48.13C89.82 50.11 85.79 52.78 82.43 56.39C79.39 59.67 77.14 63.47 76.47 67.88C75.75 72.62 74.73 77.46 77.34 82.68H77.36ZM101.5 96.16C102.55 96.52 103.18 96.87 103.84 96.95C108.7 97.54 112.24 94.93 115.37 91.81C120.77 86.41 124.68 80.04 126.96 72.72C127.17 72.04 127.38 71.25 127.22 70.6C127.08 70.01 126.56 69.23 126.02 69.04C123.4 68.09 121.87 69 121.47 71.61C121.32 72.57 121.24 73.54 121.1 74.49C119.72 83.63 114.61 89.96 106.41 93.95C104.91 94.68 103.38 95.32 101.5 96.17V96.16ZM57.91 59.82C57.43 59.57 56.82 58.94 56.37 59.05C53.32 59.77 50.27 60.56 47.29 61.51C46.18 61.86 45.14 62.6 44.2 63.34C42.56 64.63 42.31 66.77 43.45 68.54C44.68 70.45 46.5 71.15 48.41 70.16C50.55 69.05 52.61 67.76 54.61 66.41C56.81 64.94 57.35 62.53 57.9 59.82H57.91ZM124.29 117.41C124.18 116.06 124.13 115.1 124.02 114.15C123.92 113.22 122.67 112.52 121.88 112.89C119.9 113.83 118 114.89 117.19 117.1C116.28 119.58 115.4 122.07 114.65 124.6C114.27 125.88 114.94 126.89 116.04 127.63C119.16 129.73 122.38 128.56 123.17 124.87C123.72 122.29 123.96 119.64 124.28 117.39L124.29 117.41ZM27.56 52.09C27.55 51.87 27.62 51.58 27.51 51.43C26.06 49.5 24.65 47.53 23.07 45.72C22.72 45.32 21.61 45.18 21.08 45.42C20.02 45.92 18.96 46.62 18.2 47.5C16.79 49.12 17.23 51.29 18.95 52.58C21.67 54.63 24.37 54.26 27.09 52.63C27.29 52.51 27.41 52.27 27.57 52.08L27.56 52.09ZM137.02 139.99C135.74 141.75 136.09 143.75 136.38 145.61C136.55 146.71 137.34 147.82 138.12 148.68C139.74 150.46 142.34 150.22 143.73 148.29C144.15 147.71 144.49 147.05 144.78 146.39C145.6 144.55 145.04 143.33 143.02 142.47C141.03 141.63 139.02 140.82 137.01 139.99H137.02ZM128.86 140.77C126.02 140.58 125.19 141.14 124 143.97C123.36 145.48 123.72 146.22 126.02 148.02C126.58 148.46 127.21 148.82 127.83 149.19C128.54 149.61 129.99 149.11 130.23 148.29C130.7 146.68 131.15 145.06 131.45 143.41C131.74 141.82 130.75 140.9 128.86 140.77ZM26.75 58.32C24.66 58.42 22.62 59.09 21.14 60.82C20.79 61.23 20.73 62.25 21 62.73C21.45 63.53 22.21 64.2 22.96 64.77C25.31 66.57 28.25 65.67 29.2 62.9C29.83 61.08 28.45 58.32 26.75 58.33V58.32ZM129.64 127.69C128.11 129.53 126.89 130.96 125.72 132.42C125.11 133.18 125.59 134.45 126.51 134.66C128.62 135.12 130.73 135.56 133.08 134.18C132.01 132.16 130.95 130.16 129.64 127.69V127.69ZM40.64 56.91C40.35 56.6 40.1 56.1 39.72 55.98C38.35 55.51 36.94 55.14 35.53 54.79C34.68 54.58 33.67 55.69 33.95 56.65C34.34 58.03 34.84 59.39 35.42 60.7C35.82 61.61 37.16 61.74 37.85 60.98C38.83 59.91 39.73 58.77 40.63 57.63C40.75 57.48 40.65 57.17 40.65 56.9L40.64 56.91ZM68.18 50.95C68.61 50.84 69.71 50.56 70.8 50.28C70.33 48.4 68.63 48.66 67.31 48.28C66.15 47.95 64.98 47.61 63.79 47.39C63.38 47.31 62.52 47.6 62.53 47.68C62.57 48.32 62.64 49.02 62.95 49.56C64 51.39 65.8 51.05 68.18 50.95V50.95ZM129.72 97.08C128.82 99.77 129.34 102.1 130.53 104.15C131.03 105.01 132.4 105.38 133.42 105.88C133.56 105.95 134.26 105.34 134.22 105.24C133.07 102.42 131.84 99.63 129.72 97.08V97.08ZM150.03 143.44C150.03 146.27 149.96 147.45 150.08 148.62C150.11 148.94 150.67 149.37 151.04 149.43C151.37 149.49 152.01 149.19 152.1 148.91C152.89 146.53 152.72 144.23 151.21 142.14C151.09 141.97 150.78 141.88 150.56 141.88C150.43 141.88 150.2 142.11 150.17 142.26C150.04 143.2 149.95 144.14 150.02 143.44H150.03ZM120.92 96.3C120.78 99.26 120.63 102.02 120.56 104.78C120.56 105.14 120.95 105.51 121.16 105.87C121.69 105.46 122.54 105.13 122.67 104.62C122.88 103.76 122.77 102.76 122.55 101.88C122.11 100.07 121.52 98.3 120.92 96.3V96.3ZM37.17 70.07C36.42 67.39 33.71 66.36 31.68 68.05C31.42 68.27 31.33 69.22 31.41 69.25C33.13 69.95 34.88 70.59 36.65 71.16C36.7 71.18 36.99 70.45 37.17 70.07ZM119.93 140.39C120.12 140.26 120.36 140.16 120.51 139.99C121.57 138.74 121.37 137 119.7 135.64C119.09 135.14 117.96 135.26 117.07 135.17C116.9 135.15 116.51 135.48 116.53 135.59C116.92 137.51 117.71 139.22 119.31 140.44C119.43 140.53 119.72 140.42 119.93 140.4V140.39ZM24.11 38.73C21.88 38.39 21.05 38.09 20.27 38.18C18.51 38.38 16.31 37.55 15.36 39.97C15.3 40.11 15.41 40.42 15.54 40.53C17.17 41.83 18.69 40.67 20.23 40.27C21.1 40.04 21.92 39.62 24.12 38.74L24.11 38.73ZM66.52 60.14C67.04 59.87 67.62 59.56 68.2 59.25C67.64 58.95 67.08 58.43 66.53 58.44C66.1 58.44 65.69 59.13 65.27 59.51C65.64 59.7 66.01 59.89 66.51 60.14H66.52Z" fill="black"/>
</g>
<defs>
<clipPath id="clip0_1_71">
<rect width="166.04" height="169.68" fill="white"/>
</clipPath>
</defs>
</svg>
