<svg width="176" height="167" viewBox="0 0 176 167" fill="none" xmlns="http://www.w3.org/2000/svg">
<g clip-path="url(#clip0_1_61)">
<path d="M158.18 50.29C160.55 50.41 162.45 50.53 164.35 50.59C174.21 50.87 178.33 57.46 174.07 66.48C172.94 68.86 171.22 71.02 169.47 73.02C168.04 74.66 166.24 75.99 164.5 77.33C160.61 80.34 157.03 83.64 154.2 87.68C152.07 90.73 149.38 93.19 146.27 95.2C141.54 98.24 136.83 101.3 132.03 104.23C128.23 106.55 124.16 108.03 119.58 108C115.17 107.97 111.45 106.49 108.35 103.44C106.96 102.07 105.82 100.46 104.51 99.01C103.53 97.93 102.26 97.92 100.5 98.77C99.5 99.25 98.99 99.99 99.16 101.06C99.76 104.91 100.57 108.74 101.02 112.6C102.41 124.59 98.6 134.69 89.71 142.88C86.76 145.6 83.35 147.58 79.48 148.33C75.18 149.16 70.77 149.84 66.42 149.77C60.82 149.68 55.24 148.78 49.65 148.21C48.19 148.06 46.75 147.7 45.29 147.65C38.28 147.38 36.58 145.89 35.81 154.54C35.79 154.77 35.73 155.09 35.58 155.2C35.02 155.61 34.39 156.26 33.83 156.21C33.24 156.16 32.33 155.49 32.22 154.96C31.89 153.31 31.86 151.61 31.75 149.92C31.6 147.82 30.32 147.06 28.25 147.84C24.51 149.26 21.61 151.93 18.67 154.48C17.3 155.66 17.03 157.54 17.49 159.25C17.92 160.88 18.71 161.83 19.26 163.43C19.37 163.75 19.08 165.08 18.77 165.19C18.17 165.41 17.33 165.59 16.82 165.33C14.95 164.35 14.33 162.46 13.68 160.59C13.32 159.54 12.19 159.4 11.33 160.18C9.70999 161.67 8.20999 163.29 6.51999 164.68C5.60999 165.43 4.45999 166.06 3.32999 166.28C2.52999 166.44 1.43999 166 0.719989 165.5C-0.160011 164.88 -0.210011 163.75 0.399989 162.87C1.49999 161.27 2.58999 159.63 3.92999 158.25C6.82999 155.28 9.86999 152.45 12.88 149.59C15.95 146.68 18.28 143.31 19.38 139.18C19.43 138.97 19.38 138.58 19.26 138.52C18.9 138.33 18.39 138.06 18.09 138.18C15.85 139.13 14.23 140.44 11.43 141.13C11.12 141.21 10.36 140.9 10.22 140.59C9.94999 140 9.52999 139.22 10.23 138.44C11.62 137.12 12.81 136.06 14.43 135.04C19.3 131.97 20.13 132.36 19.01 125C18.72 123.07 18.66 121.1 18.38 119.17C16.82 108.36 19.42 98.27 23.84 88.58C27.52 80.53 33.2 74.32 41.73 71.22C44 70.39 46.4 69.75 48.79 69.44C54.41 68.72 60.01 69.11 65.52 70.49C68.12 71.14 70.67 72.04 73.29 72.58C74.06 72.74 75.17 72.3 75.82 71.76C76.7 71.04 76.41 70.02 75.64 69.23C74.62 68.17 73.6 67.12 72.57 66.08C68.88 62.36 67.43 57.87 68.01 52.7C68.17 51.25 68.22 49.74 68.64 48.36C72.88 34.27 79.36 21.65 91.77 12.83C94.94 10.58 97.79 7.86 100.69 5.25C103.67 2.57 106.92 0.649999 111.01 0.139999C113.78 -0.210001 116.39 -0.0500008 118.84 1.22C120.91 2.3 121.97 4.22 122.59 6.42C123 7.88 124.01 8.24 125.39 7.87C127.51 7.3 129.72 6.96 131.72 6.13C134.2 5.1 136.39 5.19 138.7 6.52C141.16 7.93 143.07 9.85 143.59 12.61C144.08 15.21 144.13 17.92 144.09 20.57C144.07 22 143.43 23.41 143.15 24.85C142.87 26.24 143.75 27.03 145.32 26.82C146.53 26.66 147.72 26.28 148.93 26.2C155.28 25.78 158.55 28.15 160.15 34.24C161.57 39.64 161.38 44.89 158.16 50.27L158.18 50.29ZM43.97 77.98C45.09 78.92 46.21 79.84 47.3 80.77C53.07 85.68 58.99 90.43 63.68 96.45C65.17 98.37 66.52 100.42 67.75 102.51C68.7 104.11 68.44 105.45 67.35 106.5C66.35 107.46 64.96 107.05 63.69 105.42C63.54 105.23 63.41 105.02 63.27 104.82C57.06 95.81 48.69 89.1 39.86 82.9C37.61 81.32 36.59 81.42 34.89 83.52C33.21 85.6 31.39 87.71 30.34 90.12C28.5 94.36 27.08 98.79 25.73 103.22C24.21 108.2 24.32 113.25 25.02 118.44C25.89 124.95 26.08 131.55 26.52 138.12C26.63 139.71 27.04 140.26 28.73 140.15C36.81 139.61 44.83 140.04 52.84 141.24C57.18 141.89 61.59 142.09 65.97 142.44C66.41 142.48 67.16 142.29 67.27 142.01C67.49 141.44 67.58 140.64 67.33 140.11C66.81 139.02 66.1 137.99 65.36 137.03C60.31 130.44 55.24 123.86 50.17 117.29C49.13 115.94 48.01 114.66 47.02 113.27C46.37 112.35 46.63 111.27 47.41 110.64C48.09 110.09 49.08 109.73 49.96 109.67C50.59 109.63 51.38 110.12 51.89 110.59C53.5 112.08 55.12 113.58 56.55 115.23C62.94 122.64 68.96 130.33 74.05 138.71C75.89 141.74 76.81 142.01 80 140.52C86.87 137.3 90.9 131.68 93.13 124.64C95.6 116.85 94.36 109.16 92.07 101.59C89.88 94.34 85.29 88.88 79.48 84.02C70.59 76.56 60.45 74.55 49.35 75.52C47.42 75.69 45.5 76.08 43.97 77.97V77.98ZM89.5 63.4C89.85 63.08 90.29 62.81 90.52 62.42C97.12 51.16 105.78 41.6 115.17 32.66C117.28 30.65 119.58 28.81 121.89 27.03C123.85 25.52 125.4 25.42 126.49 26.45C127.59 27.49 127.24 28.95 125.28 30.71C116.15 38.89 108.21 48.13 101.13 58.09C98.18 62.24 95.73 66.77 93.35 71.29C92 73.86 93.61 76.19 96.61 76.32C101.16 76.52 105.25 75.3 108.69 72.12C112.98 68.15 117.29 64.19 121.72 60.38C125.19 57.39 127.63 53.78 128.29 49.29C129.59 40.51 132.25 32.23 136.5 24.44C137.08 23.38 137.55 22.21 137.8 21.03C138.19 19.14 138.55 17.2 138.56 15.28C138.58 12.08 136.53 10.35 133.27 10.95C131.15 11.34 129.01 12.07 127.12 13.08C122.8 15.38 118.95 18.37 115.42 21.78C109.64 27.37 103.71 32.81 97.96 38.43C95.7 40.63 93.52 42.98 91.71 45.55C88.16 50.61 87.71 56.39 88.58 62.33C88.64 62.72 89.18 63.04 89.5 63.39V63.4ZM118.85 101.91C120.96 101.41 122.78 101.33 124.24 100.56C132.23 96.36 140.08 91.9 146.96 85.96C147.51 85.48 148.02 84.93 148.42 84.32C152.11 78.7 157.27 74.61 162.46 70.51C164.53 68.87 166.27 66.77 167.98 64.73C169.29 63.17 169.58 61.2 169.38 59.18C169.24 57.85 168.61 56.83 167.28 56.51C166.1 56.23 164.87 55.97 163.67 56.01C157.81 56.22 151.92 56.21 146.11 56.89C140.27 57.58 134.44 59.16 129.75 62.85C122.66 68.43 115.56 74.1 110.02 81.36C108.85 82.89 107.92 84.63 107.13 86.39C106.77 87.17 106.71 88.37 107.06 89.13C107.64 90.39 108.76 89.54 109.59 89.22C116.46 86.59 122.91 83.11 129.21 79.34C134.46 76.21 139.64 72.98 144.88 69.82C145.92 69.19 147 68.47 148.15 68.26C148.94 68.11 150.05 68.56 150.72 69.1C151.59 69.8 151.41 70.95 150.65 71.68C149.07 73.2 147.44 74.68 145.7 76C135.89 83.39 125.32 89.44 113.92 94.06C112.63 94.58 110.68 94.78 110.93 96.64C111.06 97.64 112.22 98.76 113.2 99.33C115.06 100.41 117.13 101.13 118.87 101.89L118.85 101.91ZM74.35 53.03C74.11 56.32 74.82 58.42 76.23 60.15C77.52 61.74 78.3 64.08 80.95 64.1C81.11 62.43 81.29 60.76 81.44 59.08C81.48 58.6 81.46 58.1 81.44 57.62C81.19 49.05 84.38 41.89 90.52 36.04C94.23 32.51 98.11 29.15 101.95 25.76C107.06 21.23 112.21 16.76 117.31 12.22C118.6 11.07 118.84 8.53 117.93 6.76C117.17 5.28 115.78 4.86 114.26 4.82C110.97 4.75 108.09 5.66 105.6 8.02C101.18 12.21 96.55 16.19 92.1 20.35C90.15 22.18 88.3 24.16 86.62 26.24C81.03 33.2 77.5 41.19 75.06 49.71C74.66 51.11 74.44 52.56 74.34 53.02L74.35 53.03ZM135.73 50.19C136.9 49.53 137.4 49.37 137.72 49.04C140.23 46.38 142.67 43.65 145.21 41.01C146.04 40.15 147.05 39.45 148.06 38.81C148.36 38.62 149.2 38.76 149.37 39.02C149.71 39.54 150.11 40.52 149.87 40.83C148.22 42.93 146.39 44.89 144.65 46.92C142.99 48.85 140.84 50.38 139.32 53.38C142.61 52.73 145.21 52.23 147.79 51.69C148.25 51.59 148.69 51.31 149.09 51.04C153.47 48.17 157.94 40.15 154.72 32.9C154.38 32.13 153.41 31.47 152.58 31.12C149.15 29.65 145.86 30.86 142.62 31.94C140.69 32.58 139.33 33.88 138.57 35.88C136.93 40.24 135.91 44.69 135.73 50.18V50.19ZM88.98 79.82C88.45 80.63 87.65 81.33 87.78 81.76C88.43 83.96 90.09 85.38 92.11 86.33C92.95 86.72 96.1 84.28 95.93 83.46C95.88 83.24 95.73 82.95 95.54 82.86C93.41 81.85 91.26 80.87 88.99 79.82H88.98ZM101.02 87.54C99.07 88.59 97.37 89.42 95.81 90.44C95.47 90.66 95.37 91.68 95.56 92.2C95.77 92.8 96.35 93.63 96.88 93.71C100.13 94.24 102.52 92.05 102.12 88.98C102.06 88.48 101.44 88.06 101.03 87.54H101.02ZM83.8 76.68C84.2 75.74 83.81 74.79 82.84 74.32C82 73.91 80.64 74.3 80.4 75.08C80.06 76.17 80.69 76.88 81.51 77.46C82.28 78 83.4 77.61 83.8 76.68V76.68Z" fill="black"/>
</g>
<defs>
<clipPath id="clip0_1_61">
<rect width="175.74" height="166.34" fill="white"/>
</clipPath>
</defs>
</svg>
