<svg width="172" height="167" viewBox="0 0 172 167" fill="none" xmlns="http://www.w3.org/2000/svg">
<g clip-path="url(#clip0_1_66)">
<path d="M76.23 53.99C80.55 52.04 84.76 50.16 88.94 48.23C89.91 47.78 90.15 46.52 89.42 45.86C88.88 45.37 88.2 45.01 87.75 44.45C86.56 42.96 85.77 40.61 84.27 40.04C82.12 39.22 79.49 39.64 77.06 39.59C75.35 39.56 73.63 39.72 71.93 39.63C69.09 39.47 66.59 37.24 66.77 34.49C67.15 28.64 67.76 22.79 71.62 17.9C75.85 12.55 81.1 9.34 88.11 10.62C90.42 11.04 91.76 10.36 93.27 8.92C99.8 2.70001 107.62 -0.129995 116.6 5.09061e-06C123.86 0.110005 130.1 2.34 134.29 8.57C135.73 10.71 137.48 11.39 139.82 11.28C148.62 10.85 157.72 22.26 156.17 32.71C155.77 35.44 154.16 37.23 151.6 37.85C149.24 38.42 146.78 38.65 144.35 38.79C139.23 39.1 134.11 39.28 128.99 39.46C127.15 39.53 125.75 39.91 125.14 42.01C123.94 46.1 120.66 48.01 116.79 47.81C114.11 47.67 113.43 48.68 112.73 50.71C111.21 55.13 108.04 58.14 103.85 59.97C99.61 61.82 95.28 63.51 90.93 65.09C86.23 66.8 83.21 70.09 81.37 74.6C80.52 76.7 80.91 78.02 82.77 79.7C83.31 80.19 83.89 80.66 84.5 81.06C87.01 82.71 86.94 86.99 89.86 87.56C92.56 88.09 95.58 86.68 98.48 86.57C103.37 86.38 108.24 86.15 113.05 85.12C115.73 84.55 118.22 83.63 120.3 81.84C120.82 81.4 121.09 80.67 121.47 80.08C120.92 79.79 120.37 79.26 119.81 79.26C116.63 79.24 113.46 79.43 110.28 79.37C105.73 79.29 102.89 76.2 103.62 71.81C104.09 68.95 104.89 66.05 106.12 63.44C109.08 57.19 113.99 54.4 120.97 55.26C123.79 55.61 125.43 54.7 127.39 53C129.76 50.94 132.38 48.93 135.24 47.73C141.31 45.19 147.26 45.38 152.02 50.69C153.89 52.77 155.71 54.14 158.77 54.31C163.5 54.56 166.82 57.49 169.15 61.52C170.91 64.56 171.48 67.96 171.67 71.37C171.88 75.19 169.85 77.29 166.05 77.59C164.59 77.71 163.12 77.62 161.65 77.7C159.66 77.8 159.3 78.13 158.83 80.2C158.72 80.67 158.8 81.19 158.66 81.65C157.16 86.73 152.89 89.11 147.88 87.54C146.51 87.11 145.27 86.24 144.02 85.49C142.86 84.8 142.11 85.42 141.66 86.3C140.65 88.25 139.85 90.3 138.86 92.26C136.3 97.31 132.2 100.69 126.91 102.47C123.22 103.71 119.42 104.67 115.62 105.54C107.85 107.32 103.02 114.33 104.9 121.92C106.27 127.43 106.52 127.46 111.76 127.48C123.5 127.53 135.23 127.79 146.96 127.68C155.53 127.59 154.75 130.06 154.23 136.53C154.11 137.96 153.55 139.37 153.05 140.74C150.98 146.48 148.82 152.19 146.76 157.94C145.39 161.74 142.79 164.04 138.8 164.62C136.15 165 133.47 165.32 130.79 165.4C114.42 165.88 98.05 166.49 81.68 166.65C69.71 166.76 57.74 166.24 45.77 165.99C42.59 165.92 39.41 165.87 36.24 165.65C33.57 165.47 30.91 165.05 28.24 164.76C25.59 164.48 23.89 163.15 22.59 160.75C18.05 152.33 14.8 143.37 11.45 134.46C10.25 131.27 11.52 129.34 15.14 128.94C20.23 128.38 25.35 127.95 30.47 127.73C37.55 127.42 44.64 127.38 51.73 127.2C54.31 127.13 54.62 126.84 55.27 124.45C55.78 122.57 56.07 120.59 56.83 118.81C59.08 113.52 62.29 109.03 67.66 106.38C69.52 105.46 69.54 104.59 68.65 102.82C66.93 99.38 64.36 96.92 60.74 95.59C57.76 94.5 54.78 93.4 51.77 92.39C45.32 90.24 39.8 86.86 36.34 80.76C35.47 79.22 34.21 78.79 32.66 79.49C28.99 81.15 25.56 80.59 22.14 78.71C20.9 78.03 19.43 77.76 18.04 77.38C15.08 76.58 12.55 75.41 11.76 71.99C11.59 71.27 10.54 70.47 9.74999 70.25C8.11999 69.79 6.36999 69.78 4.69999 69.44C2.60999 69.02 1.10999 67.7 0.619987 65.66C-2.01001 54.68 4.01999 43 14.08 40.49C16.58 39.87 18.9 39.79 21.24 40.74C23.44 41.63 24.89 40.86 26.19 39C28.37 35.88 31.49 33.91 35.12 32.94C40.91 31.39 46.32 32.34 50.9 36.35C52.72 37.94 54.21 39.92 55.76 41.8C56.58 42.79 57.32 43.51 58.78 43.3C65.58 42.33 70.61 45.12 74.22 50.78C74.87 51.8 75.51 52.82 76.24 53.99H76.23ZM82.8 134.8V134.66C79.14 134.66 75.47 134.85 71.82 134.63C57.68 133.76 43.52 133.9 29.37 134.12C26.01 134.17 22.66 134.83 19.3 135.21C19.1 138.79 21.49 141.43 22.77 144.44C24.39 148.24 26.64 151.77 28.44 155.5C29.57 157.84 31.28 158.46 33.72 158.45C49.59 158.36 65.45 158.5 81.32 158.28C90.83 158.15 100.33 157.34 109.84 157.11C118.38 156.9 126.92 157.03 135.46 157.09C137.41 157.1 138.75 156.4 139.52 154.66C141.98 149.09 144.44 143.51 146.87 137.92C147.39 136.72 146.55 135.62 145.04 135.52C143.58 135.42 142.11 135.39 140.65 135.37C121.37 135.18 102.08 134.99 82.8 134.8ZM111.28 31.25V30.95C122.98 30.95 134.67 30.95 146.37 30.95C148.3 30.95 149.13 30.01 148.78 28.32C147.41 21.77 143.55 18.6 137.1 18.75C136.37 18.77 135.65 18.92 134.92 18.94C133.04 19 131.65 18.14 130.67 16.59C130.28 15.97 129.91 15.34 129.58 14.69C126.95 9.52 122.33 7.60001 116.95 7.40001C109.83 7.14001 103.55 9.51 98.31 14.4C97.6 15.06 96.98 15.83 96.39 16.6C94.71 18.8 92.72 19.69 90.04 18.34C89.18 17.91 88.24 17.58 87.3 17.38C84.81 16.85 82.45 17.24 80.29 18.62C76.13 21.29 73.82 25.16 73.19 30.01C73.07 30.94 73.59 32.03 74.77 32.1C76.71 32.21 78.65 32.19 80.59 32.14C90.82 31.86 101.05 31.55 111.27 31.24L111.28 31.25ZM99.46 126.65C98.89 124.16 98.24 121.81 97.83 119.41C97.59 117.99 97.38 116.41 97.77 115.08C99.98 107.35 104.21 101.47 112.57 99.49C116.13 98.65 119.67 97.7 123.17 96.63C126.01 95.76 128.58 94.31 130.43 91.89C132.98 88.57 134.94 84.93 136.08 80.87C136.36 79.87 135.7 79.12 134.52 79.03C132.15 78.84 130.46 79.4 129.23 81.85C125.86 88.56 119.91 91.59 112.68 92.36C109.77 92.67 106.83 92.73 103.91 92.94C101.48 93.12 99.05 93.34 96.62 93.56C93.53 93.84 91.07 95.34 89.01 97.55C88.01 98.62 87.09 99.77 86.2 100.93C82.41 105.84 77.93 109.94 72.15 112.38C67.29 114.43 64.54 118.38 62.48 122.91C61.22 125.68 61.89 127.21 65.03 127.22C75.78 127.26 86.54 127.29 97.29 127.28C97.96 127.28 98.62 126.9 99.47 126.65H99.46ZM13.02 65.55C16.42 65.31 19.82 65.03 23.22 64.83C35.62 64.12 48.03 63.49 60.42 62.71C63.08 62.54 65.73 62.05 68.33 61.43C69.04 61.26 70.05 60.05 70.01 59.38C69.8 55.83 68.32 52.81 65.46 50.57C63.22 48.82 60.72 48 57.94 49.08C55.74 49.93 54.11 49 52.72 47.54C50.88 45.6 49.28 43.42 47.41 41.5C43.65 37.64 39.46 37.02 34.88 39.85C33.07 40.97 31.58 42.69 30.15 44.31C29.03 45.57 28.31 47.18 27.25 48.5C26.42 49.52 25.18 49.82 23.96 49.19C22.89 48.63 21.92 47.87 20.89 47.22C18.56 45.77 16.24 46.03 14 47.41C10.02 49.87 7.93999 53.62 6.90999 58.06C5.53999 63.96 6.80999 65.52 13 65.54L13.02 65.55ZM155.19 70.32C158.64 70.32 160.84 70.35 163.03 70.3C163.89 70.28 164.7 69.02 164.5 68.18C163.16 62.63 160.43 60.4 154.8 60.26C154.56 60.26 154.31 60.32 154.07 60.34C152.23 60.49 150.72 60.01 149.74 58.29C149.26 57.45 148.68 56.64 148.04 55.91C145.16 52.58 142.32 51.95 138.24 53.67C135.25 54.93 132.79 56.91 130.76 59.41C129.99 60.35 129.46 61.6 128.51 62.25C127.61 62.87 126.27 63.2 125.18 63.09C124.03 62.97 123 62.04 121.85 61.69C118.2 60.6 115.12 61.54 112.67 64.5C110.92 66.62 109.84 69.06 109.38 71.74C109.3 72.21 109.94 73.06 110.46 73.31C111.07 73.6 111.9 73.46 112.62 73.42C123.34 72.76 134.07 72.14 144.79 71.4C148.68 71.13 152.55 70.61 155.2 70.33L155.19 70.32ZM75.55 100.55C75.97 100.45 76.54 100.48 76.79 100.22C78.59 98.23 80.37 96.23 82.06 94.15C83.76 92.05 83.75 91.11 82.55 88.91C81.31 86.63 79.54 85.02 76.96 84.64C73.83 84.17 70.69 83.79 67.53 83.59C58.33 83.02 50.25 80.45 45.5 71.68C45.39 71.47 45.21 71.29 45.05 71.11C44.12 70 41.78 69.59 40.35 70.45C38.94 71.29 39.69 72.59 39.95 73.69C40.89 77.73 43.41 80.69 46.88 82.72C49.17 84.06 51.71 85.03 54.21 85.96C57.17 87.06 60.22 87.93 63.23 88.93C67.83 90.46 71.42 93.16 73.53 97.65C73.94 98.52 74.46 99.35 74.96 100.17C75.07 100.36 75.35 100.44 75.55 100.58V100.55ZM72.02 77.29C74.46 77.32 75.14 77.01 75.52 75.04C77.29 65.89 82.95 60.55 91.68 57.99C94.01 57.31 96.22 56.23 98.48 55.32C104.37 52.96 106.96 48.32 107.56 42.28C107.71 40.78 107.1 39.77 105.87 39.61C103.95 39.35 102.74 39.87 102.22 41.22C102.04 41.67 101.94 42.16 101.83 42.63C100.43 48.65 96.54 52.37 90.9 54.43C88.38 55.35 85.83 56.17 83.3 57.05C80.16 58.15 77.55 59.75 77.08 63.47C76.84 65.38 75.52 66.44 73.84 67.08C73.16 67.34 72.39 67.39 71.74 67.7C69.84 68.62 68.11 74.23 69.13 76.16C69.33 76.54 69.84 76.84 70.27 76.98C70.96 77.19 71.7 77.23 72.02 77.28V77.29ZM31.02 72.2C30.92 71.98 30.87 71.69 30.7 71.55C29.03 70.27 27.18 70.01 25.31 70.91C24.93 71.09 24.58 72.32 24.8 72.61C26.38 74.66 28.36 74.91 30.46 73.41C30.78 73.19 30.84 72.6 31.02 72.19V72.2ZM62.9 71.26C62.91 71.02 63.02 70.73 62.92 70.55C62.72 70.17 62.45 69.64 62.12 69.57C61.83 69.51 61.25 69.91 61.1 70.24C60.52 71.55 59.93 72.89 59.62 74.28C59.52 74.71 60.21 75.67 60.67 75.77C61.12 75.87 62.06 75.3 62.23 74.83C62.63 73.71 62.7 72.47 62.9 71.27V71.26ZM119.07 41.03C118.93 40.65 118.91 40.1 118.65 39.96C117.55 39.35 116.43 39.39 115.57 40.39C115.32 40.68 115.19 41.29 115.31 41.63C115.45 41.99 115.92 42.36 116.32 42.45C117.6 42.75 118.53 42.23 119.06 41.02L119.07 41.03ZM151.13 79.69C150.53 79.3 150.02 78.9 149.44 78.66C149.35 78.62 148.97 79.25 148.72 79.57C149.19 79.91 149.63 80.32 150.15 80.53C150.31 80.59 150.7 80.08 151.13 79.7V79.69ZM18.62 71.82C18.43 71.45 18.32 70.86 18.03 70.76C17.7 70.64 17.22 70.95 16.8 71.08C17.06 71.6 17.32 72.12 17.59 72.64C17.93 72.37 18.28 72.09 18.62 71.81V71.82ZM92.21 40.41C92.66 40.57 93.06 40.76 93.47 40.82C93.61 40.84 93.8 40.55 93.97 40.41C93.66 40.21 93.37 39.86 93.05 39.84C92.79 39.82 92.51 40.19 92.21 40.41ZM53.32 70.01C53.52 69.94 53.72 69.86 53.91 69.79C53.74 69.67 53.55 69.43 53.41 69.45C53.17 69.49 52.95 69.71 52.73 69.85C52.93 69.9 53.12 69.96 53.32 70.01V70.01Z" fill="black"/>
</g>
<defs>
<clipPath id="clip0_1_66">
<rect width="171.69" height="166.68" fill="white"/>
</clipPath>
</defs>
</svg>
