<svg width="178" height="161" viewBox="0 0 178 161" fill="none" xmlns="http://www.w3.org/2000/svg">
<g clip-path="url(#clip0_1_23)">
<path d="M89.73 142.1C89.73 143.32 89.84 144.56 89.71 145.76C89.32 149.4 90.13 152.5 93.2 154.82C93.74 155.22 94.18 156.03 94.26 156.69C94.37 157.58 94.37 158.73 93.89 159.39C93.39 160.07 92.3 160.4 91.41 160.7C91.02 160.83 90.36 160.64 90.02 160.36C86.43 157.38 82.47 158.51 78.95 159.98C76.1 161.16 73.92 161.31 71.54 159.4C70.05 158.2 68.37 158.56 66.65 158.95C64.53 159.43 62.37 159.84 60.21 159.98C58.95 160.06 57.95 159.16 57.49 157.9C57.02 156.58 57.45 155.33 58.48 154.65C60.09 153.59 61.87 152.74 63.67 152.03C66.14 151.05 67.78 149.4 68.3 146.81C68.98 143.46 69.56 140.09 70.12 136.72C70.39 135.1 69.69 134.01 68.15 133.24C64.91 131.63 62.21 128.86 58.28 128.77C46.33 124.18 36.57 116.69 28.86 106.51C25.71 102.36 24.14 97.42 22.37 92.62C21.19 89.42 19.99 86.17 19.32 82.84C18.49 78.68 16.6 76.27 12.41 74.52C6.1 71.89 3.01 66.26 2.39 59.43C1.91 54.13 3.18 49.25 6.1 44.79C6.77 43.77 7.53 42.78 7.98 41.66C8.15 41.25 7.67 40.17 7.26 40.02C5.91 39.51 4.39 39.41 3.03 38.91C-0.179998 37.72 -0.959998 35.03 1.26 32.63C5.14 28.42 9.49 24.97 15.48 24.31C16.45 24.2 17.52 24.18 18.33 23.73C19.1 23.3 19.83 22.46 20.13 21.63C20.43 20.77 20.19 19.72 20.18 18.75C20.06 9.06999 27.3 1.31999 36.93 1.26999C40.36 1.24999 43.63 0.939993 47.01 0.309993C55.77 -1.34001 62.81 3.83999 63.74 13.37C64.2 18.12 62.25 22.5 58 25.36C56.63 26.28 56.31 27.33 56.52 29.04C57.08 33.64 57.25 38.28 57.62 42.9C57.93 46.79 58.05 50.72 58.68 54.56C59.6 60.18 62.66 64.42 67.78 67.15C73.15 70.01 78.79 71.04 84.79 70.09C87.37 69.68 88.24 68.55 87.6 66.11C80.79 40.22 98.12 18.53 115.77 10.87C127.26 5.87999 138.61 6.36999 149.69 12.12C152.5 13.58 155.16 15.36 157.69 17.26C164.49 22.37 168.65 29.1 168.93 37.72C169.03 40.85 170.19 43.33 171.62 45.91C178.11 57.56 179.23 69.98 176.48 82.84C174.57 91.76 170.01 99.2 162.9 104.88C157 109.6 151.2 114.53 144.4 118C142.55 118.94 141.44 120.37 140.42 122.11C138.69 125.06 136.74 127.87 134.82 130.7C134.14 131.7 133.34 132.64 132.48 133.5C130.91 135.07 128.47 134.57 127.73 132.56C126.78 130 126.5 127.37 126.88 124.64C127.03 123.55 126.01 122.91 124.9 123.27C123.74 123.65 122.65 124.24 121.48 124.55C119.11 125.18 117.03 124.72 115.98 122.27C115.34 120.76 114.58 120.53 113.31 121.43C110.33 123.56 107.45 125.85 104.33 127.75C100.56 130.04 96.43 131.55 92.05 132.38C90.26 132.72 89.61 133.67 89.55 135.49C89.48 137.69 89.53 139.89 89.53 142.08H89.73V142.1ZM22.18 54.97C22.1 72.23 25.29 82.27 31.34 97.56C32.49 100.45 34.29 103.22 36.32 105.6C42.24 112.53 49.14 118.29 57.62 121.97C59.68 122.86 61.55 123.87 63.82 122.4C64.27 122.11 65.57 122.78 66.26 123.3C66.78 123.69 66.9 124.59 67.3 125.19C69.23 128.05 71.7 128.98 74.81 127.82C76.15 127.32 77.37 126.45 78.57 125.66C79.95 124.75 81.27 124.61 82.57 125.71C83.52 126.52 84.47 127.18 85.83 126.96C97.17 125.15 106.37 119.57 113.9 111.06C115.28 109.5 115.66 107.67 115.26 105.6C113.63 97.1 110.63 89.13 105.75 82C104 79.44 101.53 77.31 99.16 75.24C97.4 73.7 95.46 73.52 93.2 74.99C86.87 79.1 79.82 79.52 72.76 77.66C61.69 74.76 51.73 67.29 50.92 52.52C50.68 48.14 50.89 43.73 50.68 39.35C50.52 35.95 50.17 32.54 49.62 29.18C49.05 25.74 47.33 22.75 45.06 20.13C43.75 18.62 42.1 17.62 40.02 17.47C33.5 17 28.03 20.63 26.01 26.79C25.71 27.72 25.33 28.64 25.16 29.59C23.65 37.99 21.89 46.36 22.18 54.97V54.97ZM170.31 72.73C170.31 62.55 168.61 55.25 164.78 48.53C156.72 34.38 141.44 28.5 125.87 33.48C114.11 37.24 105.94 45.36 99.29 55.33C99.09 55.63 99.21 56.15 99.18 56.56C99.61 56.59 100.17 56.8 100.45 56.61C104.14 54.18 108.09 52.29 112.31 50.99C127.44 46.31 140.34 53.77 145.06 66.49C145.65 68.09 146.22 69.7 146.68 71.35C149.44 81.19 148.61 91.17 147.72 101.14C147.53 103.28 147.24 105.41 146.99 107.55C149.79 107.77 150.88 105.21 152.72 103.92C154.7 102.53 156.42 100.75 158.2 99.08C166.49 91.27 170.23 81.53 170.3 72.73H170.31ZM101.93 62.52C103.38 62.61 104.5 62.74 105.61 62.73C110.51 62.68 114.59 64.7 118.24 67.76C121.06 70.12 123.47 72.85 125.41 76C129.01 81.86 131.87 88.09 133.3 94.8C134.51 100.46 135.04 106.27 135.91 112.29C136.46 111.56 137.2 110.91 137.52 110.1C140.76 101.78 141.5 93 141.51 84.23C141.51 78.16 140.37 72.09 137.72 66.47C135.18 61.1 131.05 57.47 125.31 55.95C118.11 54.04 108.46 56.76 101.94 62.52H101.93ZM92.72 55.23C94.23 52.92 95.24 51.27 96.35 49.69C101.43 42.43 107.36 36 115.14 31.58C124.77 26.11 134.96 23.41 145.99 26.39C149.48 27.33 152.8 28.94 156.17 30.29C157.07 30.65 157.84 31.33 158.75 31.65C159.31 31.84 160.01 31.61 160.65 31.57C160.56 31.13 160.58 30.64 160.37 30.27C155.09 20.97 139.37 10.7 122.91 15.31C107.07 19.75 93.9 35.5 92.41 51.9C92.33 52.74 92.56 53.61 92.72 55.23ZM128.42 108.84C128.42 108.35 128.46 107.86 128.42 107.38C127.5 96.99 124.33 87.33 118.94 78.4C117.02 75.22 114.5 72.57 111.37 70.56C108.87 68.96 106.16 67.87 103.1 68.2C102.69 68.24 102.18 68.63 101.99 69C101.85 69.27 102 69.99 102.25 70.15C108.95 74.35 112.93 80.71 116.27 87.62C120.05 95.44 122.07 103.66 122.17 112.35C122.18 113.24 122.49 114.44 123.11 114.94C124.31 115.9 125.36 114.67 126.29 114.03C128.07 112.8 128.48 110.9 128.43 108.86L128.42 108.84ZM84.82 141.13C84.82 138.56 84.93 136.85 84.75 135.18C84.69 134.65 83.9 133.83 83.38 133.79C81.46 133.62 79.52 133.61 77.6 133.76C77.05 133.81 76.18 134.57 76.12 135.09C75.45 140.36 74.82 145.64 74.42 150.94C74.28 152.77 77 154.11 78.72 153.49C82.59 152.11 84.58 149.46 84.61 145.33C84.62 143.63 84.78 141.94 84.82 141.12V141.13ZM38.97 10.78C43.13 11.19 46.3 12.35 48.79 14.91C50.14 16.3 51.28 17.9 52.55 19.39C53.29 20.26 54.48 20.18 54.95 19.2C55.58 17.89 56.27 16.58 56.64 15.18C57.41 12.3 56.35 9.84999 54.2 7.95999C52.22 6.20999 49.91 5.73999 47.4 6.88999C46.73 7.18999 46.01 7.39999 45.39 7.75999C43.46 8.88999 41.69 8.65999 39.99 7.26999C38.23 5.83999 36.33 6.08999 34.49 6.98999C32.75 7.83999 31.07 8.82999 29.45 9.87999C28.87 10.25 28.44 10.94 28.11 11.58C27.96 11.87 28.18 12.39 28.33 12.77C28.4 12.94 28.75 13.16 28.92 13.12C32.48 12.32 36.02 11.48 38.97 10.79V10.78ZM15.61 42.92C12.32 45.75 12.12 46.04 10.92 48.57C7.92 54.9 8.63 60.83 12.88 66.32C13.43 67.03 14.4 67.42 15.17 67.96C15.47 67.15 16.01 66.34 16.02 65.53C16.02 59.21 15.93 52.9 15.85 46.58C15.83 45.43 15.7 44.28 15.61 42.91V42.92ZM12.69 33.88C14.08 33.88 14.79 33.89 15.5 33.88C15.74 33.88 15.97 33.8 16.2 33.74C17.03 33.55 17.79 31.84 17.51 30.69C17.24 29.59 16.37 29.22 15.38 29.34C13.18 29.61 11.26 30.53 9.77 32.19C9.59 32.39 9.73 33.25 9.87 33.28C11.01 33.59 12.18 33.78 12.69 33.88Z" fill="black"/>
<path d="M89.66 113.24C77.3 111.37 66.11 107.21 58.88 96.03C57.59 94.03 56.82 91.65 56.06 89.36C55.76 88.46 56.37 87.36 57.46 87.13C58.06 87 59.03 87.16 59.38 87.57C60.65 89.04 61.7 90.7 62.88 92.24C69.54 100.94 78.67 104.94 89.3 106.03C90.49 106.15 91.74 106 92.94 105.81C96.28 105.28 97.86 102.42 96.39 99.27C95.58 97.53 94.27 96.02 93.19 94.41C92.25 93 91.25 91.62 90.4 90.15C89.87 89.23 90.1 88.26 90.81 87.45C91.73 86.4 93.17 86.06 94.12 86.72C98.98 90.12 103.47 93.92 104.03 100.41C104.55 106.47 101.46 110.87 95.62 112.42C93.76 112.91 91.78 112.96 89.67 113.24H89.66Z" fill="black"/>
<path d="M35.21 29.45C35.04 31.09 33.84 32.18 32.32 32.08C30.8 31.99 29.57 30.73 29.57 29.25C29.57 27.47 31.21 26.01 32.94 26.23C34.36 26.41 35.38 27.85 35.21 29.45Z" fill="black"/>
</g>
<defs>
<clipPath id="clip0_1_23">
<rect width="177.88" height="160.85" fill="white"/>
</clipPath>
</defs>
</svg>
