<svg width="176" height="166" viewBox="0 0 176 166" fill="none" xmlns="http://www.w3.org/2000/svg">
<g clip-path="url(#clip0_1_52)">
<path d="M0.0300005 98.77C0.0500005 86.31 2.96 76.1 8.12 66.45C17.63 48.67 32.16 36.55 50.52 28.77C56.21 26.36 57.37 27.32 54.14 19.91C53.27 17.9 52.31 15.92 51.62 13.84C51.22 12.64 51.73 11.41 52.76 10.58C53.78 9.75999 55.92 9.72999 56.88 10.63C57.93 11.62 58.91 12.73 59.72 13.92C60.81 15.53 61.64 17.31 62.71 18.93C63.1 19.52 63.91 19.77 64.48 18.96C65.6 17.36 66.58 15.66 67.79 14.13C72.91 7.64999 79.08 2.72999 87.33 0.729994C91.23 -0.210006 95.07 -0.200006 98.95 0.459994C104.72 1.44999 110.48 2.52999 116.24 3.58999C123.51 4.91999 130.76 5.55999 137.99 3.31999C138.92 3.02999 139.9 2.89999 140.87 2.78999C143.38 2.50999 145.23 4.00999 145.32 6.45999C145.36 7.41999 145.41 8.47999 145.08 9.34999C143.51 13.45 142.03 17.6 140.11 21.54C136.26 29.48 130.3 35.45 122.4 39.45C120.67 40.33 118.97 41.27 117.31 42.28C117.06 42.43 116.88 43.28 117.05 43.49C119.1 45.91 121.15 48.33 123.36 50.61C124.51 51.8 126.15 51.4 127.54 51.07C133.62 49.63 139.17 51.25 144.44 54.06C148.55 56.25 152.32 59.02 155.41 62.53C157.66 65.09 159.86 67.77 161.61 70.67C169.69 84.04 174.49 98.56 175.84 114.14C176.44 121.03 175.3 127.81 173.02 134.31C170.32 142.01 165.03 147.76 158.09 151.77C147.22 158.05 135.61 162.43 123.03 163.88C116.36 164.65 109.77 164.24 103.58 161.66C99.42 159.93 95.74 160.18 91.67 161.75C84.32 164.58 76.63 165.98 68.71 165.58C56.55 164.97 45.08 161.92 34.79 155.23C19.1 145.01 7.97 131.21 2.44 113.16C0.850001 108.01 -0.179999 102.74 0.0300005 98.77ZM69.27 156.01C72.44 155.78 75.61 155.66 78.76 155.28C80.69 155.05 82.58 154.48 84.46 153.95C86.94 153.25 87.3 152.26 85.86 150.37C84.82 149.01 83.69 147.73 82.64 146.37C67.2 126.27 69.17 98.7 81.31 81.89C88.57 71.85 97.35 63.5 108.46 57.8C110.41 56.8 112.39 55.83 114.32 54.78C115.29 54.25 115.71 53.32 114.88 52.42C113.23 50.64 111.55 48.85 109.69 47.31C107.95 45.88 105.9 45.31 103.52 45.86C94.43 47.96 85.56 47 76.95 43.52C75.75 43.03 74.63 42.84 73.5 43.61C67.62 47.6 60.99 47.17 54.38 46.85C53.67 46.82 52.95 46.56 52.26 46.34C50.87 45.89 49.82 44.37 49.97 42.98C50.11 41.63 50.91 40.73 52.17 40.37C53.1 40.1 54.09 40.06 55.04 39.87C57.41 39.39 57.89 38.76 57.7 36.45C57.49 33.81 56.2 32.89 53.85 34.11C49.52 36.35 45.16 38.6 41.07 41.24C28.18 49.54 18.64 60.75 12.79 74.96C6.81 89.48 6.68 104.02 13.5 118.27C15.7 122.87 18.37 127.36 21.52 131.36C33.64 146.78 49.19 155.82 69.29 156.01H69.27ZM133.76 151.84C131.77 150.73 130.57 149.99 129.32 149.37C123.57 146.55 118.26 143.12 114.21 138.08C102.36 123.32 97.36 106.47 99.25 87.64C99.76 82.53 101.24 77.62 102.97 72.78C103.29 71.88 104.5 70.86 102.99 69.73C98.08 73.47 93.96 77.94 90.23 82.78C80.87 94.93 78.21 108.7 81.09 123.52C82.9 132.88 87.57 140.81 94.92 147.02C99.29 150.72 104.27 153.02 109.92 154.16C117.83 155.75 125.33 154.08 133.76 151.84ZM124.17 12.21C118.05 10.93 112.57 9.71999 107.07 8.64999C103.24 7.90999 99.34 7.48999 95.53 6.67999C90.68 5.64999 86.26 6.98999 82.11 9.11999C76.1 12.2 71.46 16.83 68.22 22.81C67.72 23.73 68.25 24.95 69.24 24.97C72.17 25.02 75.12 25.24 78.02 24.93C90.68 23.58 103.12 21.11 115.1 16.71C118.04 15.63 121.19 14.92 124.17 12.21V12.21ZM68.36 31.54C68.7 32.21 68.8 32.82 69.14 33.05C76.15 37.82 83.85 40.96 92.37 40.73C104.07 40.42 114.92 36.98 124.43 29.92C128.43 26.95 131.34 23.07 133.42 18.58C133.57 18.26 133.25 17.7 133.07 17.29C133.02 17.17 132.65 17.08 132.49 17.14C131.81 17.4 131.14 17.69 130.49 18.03C121.12 22.86 111.29 26.31 100.91 28.33C90.19 30.42 79.45 32.11 68.36 31.54V31.54ZM128.97 93.27C128.85 93.28 129.64 93.33 129.69 93.17C129.86 92.58 130.01 91.79 129.74 91.31C125.33 83.45 120.86 75.62 116.38 67.79C115.62 66.45 114.4 66.4 113.69 67.65C110.66 73 108.86 78.81 107.6 84.79C107.29 86.24 108.36 87.02 109.59 87.4C115.87 89.33 122.17 91.21 128.96 93.27H128.97ZM136.68 75.85H136.58C136.42 71.71 136.31 67.56 136.09 63.42C135.97 61.09 135.26 60.48 133.19 59.83C129.49 58.66 125.95 59.58 122.42 60.51C120.73 60.95 120.18 62.35 121.1 63.87C124.89 70.13 128.68 76.39 132.55 82.59C133.55 84.2 134.87 85.61 136.05 87.11C137.75 85.22 136.54 83.02 136.66 80.97C136.76 79.27 136.68 77.56 136.68 75.85V75.85ZM139.08 115.1C137.06 115.12 136.55 116.66 135.84 117.86C132.66 123.3 129.52 128.77 126.41 134.26C124.62 137.42 124.74 138.11 128.02 139.9C130.76 141.4 133.69 142.58 136.59 143.77C137.77 144.25 139.06 143.27 139.09 141.95C139.21 137.1 139.3 132.25 139.3 127.4C139.3 123.3 139.62 119.19 139.08 115.1ZM130.97 108.63C130.73 108.65 130.45 108.6 130.25 108.69C124.5 111.31 118.75 113.91 113.03 116.59C111.59 117.26 111.09 118.76 111.93 120.3C113.78 123.71 115.73 127.07 117.79 130.35C118.85 132.03 120.2 131.94 121.09 130.29C124.65 123.65 128.18 116.99 131.7 110.33C131.81 110.13 131.91 109.79 131.81 109.63C131.6 109.26 131.26 108.96 130.97 108.63V108.63ZM167.87 120.92L167.49 120.83C167.49 120.34 167.49 119.86 167.49 119.37C167.44 116.73 167.01 116.01 164.44 115.12C160.77 113.85 157.07 112.66 153.35 111.55C152.8 111.39 151.99 111.8 151.41 112.15C151.24 112.25 151.32 113.11 151.54 113.47C155.39 119.66 159.26 125.83 163.16 131.98C163.66 132.76 165.24 132.47 165.46 131.53C166.3 128 167.07 124.46 167.86 120.92H167.87ZM146.74 133.39H146.78C146.78 137.01 146.73 140.64 146.81 144.26C146.83 145.4 147.7 145.88 148.8 145.76C152.5 145.35 155.8 143.96 158.68 141.59C159.69 140.76 159.92 139.5 159.17 138.4C156.59 134.6 154.08 130.74 151.33 127.07C150.13 125.47 149.92 122.87 147.26 122.58C147.09 124.49 146.86 126.4 146.77 128.31C146.69 130 146.75 131.7 146.75 133.39H146.74ZM126.4 102.01C125.17 101.13 124.49 100.44 123.65 100.09C121.42 99.17 119.11 98.45 116.86 97.58C104.36 92.74 105.68 93.21 107.29 105.21C107.42 106.16 107.65 107.11 107.9 108.03C108.36 109.72 109.7 110.48 111.16 109.75C116.11 107.28 121.02 104.74 126.4 102V102.01ZM143.67 74.26H143.73C143.77 74.98 143.77 75.72 143.86 76.44C144.19 79.03 143.5 81.77 145 84.19C148.12 83.35 147.89 80.07 149.44 78.07C150.47 76.74 151.22 75.17 151.91 73.62C152.15 73.07 152.09 72.08 151.74 71.61C149.72 68.88 147.47 66.33 144.29 64.9C144.07 64.8 143.24 65.35 143.24 65.58C143.33 68.48 143.52 71.37 143.69 74.27L143.67 74.26ZM165.84 103.92C165.11 101.63 165.48 98.08 162.86 95.52C160.07 95.27 157.9 97.05 155.42 97.82C154.5 98.1 153.54 98.4 152.77 98.94C151.95 99.52 150.03 99.28 150.62 100.99C150.85 101.67 152.07 102.15 152.93 102.45C156.57 103.69 160.24 104.84 163.91 105.99C165.08 106.36 165.94 105.79 165.85 103.92H165.84ZM160.5 86.79C159.7 85.14 158.94 83.41 158 81.79C157.88 81.58 156.47 81.7 156.28 82.03C154.82 84.49 153.52 87.04 152.18 89.57C152.1 89.72 152.14 90.1 152.23 90.15C152.63 90.36 153.15 90.72 153.49 90.61C155.3 90.02 157.1 89.38 158.84 88.59C159.43 88.32 159.79 87.58 160.5 86.79Z" fill="black"/>
<path d="M20.81 81.79C23.28 81.95 25.11 83.85 24.89 85.7C24.5 88.96 22.88 91.65 20.22 93.49C19.43 94.04 17.78 94.03 16.9 93.56C16.02 93.09 15.15 91.78 15.06 90.77C14.81 87.77 15.94 85.05 18.05 82.93C18.81 82.17 20.19 82.03 20.82 81.79H20.81Z" fill="black"/>
<path d="M33.9 67.24C33.38 71.15 32.02 74.17 28.67 75.76C27.79 76.18 26.16 75.93 25.35 75.34C24.53 74.74 23.81 73.27 23.92 72.28C24.25 69.3 25.64 66.69 28.3 65.13C29.2 64.6 30.72 64.5 31.69 64.88C32.63 65.25 33.24 66.48 33.9 67.24V67.24Z" fill="black"/>
<path d="M38.54 82.25C38.42 84.87 37.18 87.16 34.94 88.88C33.93 89.65 32.73 89.85 31.51 89.3C30.27 88.75 29.74 87.68 29.62 86.42C29.36 83.55 30.49 81.22 32.53 79.26C33.72 78.12 35.28 77.81 36.51 78.44C38 79.19 38.5 80.47 38.54 82.26V82.25Z" fill="black"/>
</g>
<defs>
<clipPath id="clip0_1_52">
<rect width="175.99" height="165.66" fill="white"/>
</clipPath>
</defs>
</svg>
