<svg width="165" height="166" viewBox="0 0 165 166" fill="none" xmlns="http://www.w3.org/2000/svg">
<g clip-path="url(#clip0_1_10)">
<path d="M83.97 129.11C80.74 129.61 77.41 128.33 74.37 130.1C73.72 133.05 72.87 135.97 72.45 138.94C71.73 144.07 69.25 148.59 67.71 153.44C67.37 154.5 66.56 155.47 65.8 156.33C61.47 161.23 55.91 164.01 49.59 165.27C48.03 165.58 46.3 165.54 44.73 165.24C41.84 164.68 39.44 163.36 39.04 159.99C38.96 159.3 39.04 158.41 38.64 157.97C34.09 152.96 38.23 148.96 40.21 144.79C40.64 143.89 41.93 143.29 42.95 142.81C45.36 141.68 47.95 141.93 50.51 142.16C53.98 142.49 57.46 142.84 60.94 143.09C62.78 143.22 63.66 142.6 64.05 141.02C64.89 137.63 65.64 134.23 66.43 130.83C66.71 129.64 65.99 129.12 65.01 128.94C60.21 128.03 55.38 127.28 50.61 126.24C43.52 124.71 36.71 122.35 30.48 118.57C18.18 111.1 11.52 97.23 14.19 83.41C15.97 74.17 19.61 65.61 26.17 58.56C28.55 56 30.85 53.38 33.19 50.79C35.53 48.19 35.53 45.34 33.97 42.4C33.43 41.38 32.74 40.42 32.08 39.47C29.99 36.47 27.75 34.58 23.43 35.21C18.42 35.94 13.18 35.81 8.21 34.19C6.46 33.62 4.69 32.93 3.16 31.93C0.870001 30.4 -0.249999 28.12 0.0500008 25.3C0.350001 22.43 2.05 20.66 4.7 19.79C6.24 19.29 7.84 18.97 9.42 18.59C12.36 17.88 15.33 17.3 18.23 16.46C22.3 15.27 25.75 13.25 28.66 9.89C34.62 3.02 42.32 -0.319996 51.57 0.020004C55.51 0.170004 58.83 1.51 61.68 4.11C64.65 6.81 67.07 9.98 68.44 13.75C70.53 19.48 71.85 25.38 70.55 31.53C69.3 37.44 68.01 43.35 66.73 49.25C66.53 50.16 66.2 51.04 66.03 51.95C65.41 55.3 66.1 56.49 69.55 57.59C71.54 58.23 73.6 58.66 75.64 59.12C76.54 59.33 77.48 59.39 78.41 59.51C89.03 60.83 99.64 62.28 110.39 60.96C115.23 60.37 120.15 60.19 124.94 59.34C129.5 58.53 134.02 57.32 138.41 55.85C143.25 54.23 147.91 52.08 152.68 50.24C153.96 49.75 155.35 49.27 156.7 49.24C163.44 49.08 164.52 51.59 163.97 56.58C163.61 59.8 163.06 63.04 162.2 66.16C158.62 79.08 152.96 91.02 144.61 101.57C135.33 113.3 123.1 120.59 108.95 124.91C108.51 125.05 107.98 124.99 107.59 125.21C105.2 126.54 101.94 125.52 99.98 128C100.61 130.68 101.19 133.39 101.91 136.05C102.2 137.14 102.64 138.27 103.32 139.16C105.26 141.71 105.09 144.28 103.92 147.05C101.51 152.75 97.81 157.51 93.07 161.4C89.38 164.43 86.9 164.28 83.05 161.39C82.32 160.84 81.67 160.09 80.86 159.75C78.29 158.68 76.59 157.14 76.41 154.12C76.35 153.06 75.45 152.05 74.99 151C73.52 147.64 74.3 144.99 77.53 143.46C79.39 142.58 81.49 142.18 83.49 141.59C86.39 140.75 89.3 139.97 92.19 139.1C93.45 138.72 93.99 137.73 93.97 136.44C93.97 135.98 93.89 135.51 93.86 135.05C93.41 128.58 92.99 128.51 87.42 129.1C86.27 129.22 85.09 129.12 83.99 129.12L83.97 129.11ZM79.39 120.82C88.81 121.05 98.43 119.41 107.83 116.56C120.39 112.75 131.22 106.21 139.29 95.61C147.75 84.48 153.12 71.94 156.19 58.37C156.28 57.99 156.04 57.2 155.86 57.17C155.27 57.07 154.51 57.03 154.03 57.32C147.17 61.39 139.87 64.37 132.13 66.27C131.47 66.43 130.84 66.74 130.2 67.01C129.29 67.4 129.22 68.51 130.07 69.17C130.44 69.45 130.89 69.62 131.25 69.92C134.28 72.4 134.9 74.51 133.43 77.76C132.96 78.81 132.41 79.9 131.64 80.73C130.1 82.41 129.66 84.22 129.87 86.48C130.17 89.7 128.73 92.47 126.44 94.57C124.23 96.61 121.83 98.51 119.26 100.06C104.71 108.81 88.91 111.54 72.21 109.33C68.31 108.81 64.45 107.8 60.65 106.72C59.17 106.3 57.8 105.22 56.61 104.18C55.71 103.38 55.56 101.98 56.27 100.97C56.74 100.31 57.72 99.75 58.52 99.67C59.64 99.57 60.82 99.88 61.94 100.15C72.96 102.8 84.05 103.32 95.18 101.06C103.7 99.33 111.72 96.3 118.99 91.45C119.27 91.26 119.35 90.76 119.52 90.4C119.09 90.29 118.62 90.01 118.23 90.1C115.06 90.82 111.93 91.79 108.72 92.3C106.46 92.66 104.09 92.58 101.8 92.39C101.11 92.33 100.35 91.32 99.9 90.58C99.4 89.74 100.11 88.03 101.11 87.62C102.83 86.93 104.58 86.29 106.37 85.84C110.66 84.74 114.99 83.72 118.9 81.58C121.11 80.37 123.09 78.72 125.14 77.21C125.29 77.1 125.13 76.48 125 76.13C124.95 75.98 124.58 75.81 124.42 75.86C122.9 76.37 121.34 76.8 119.9 77.49C117.1 78.83 114.22 79.6 111.13 78.97C110.55 78.85 109.82 78.27 109.65 77.74C109.48 77.2 109.73 76.31 110.12 75.85C110.7 75.17 111.51 74.62 112.33 74.22C114.2 73.28 116.18 72.54 118.02 71.55C119.19 70.92 121.25 70.36 120.94 68.97C120.52 67.09 118.67 68.46 117.45 68.49C115.36 68.54 113.27 68.74 111.17 68.85C101.59 69.36 92.05 68.61 82.59 67.37C75.94 66.5 69.15 65.6 63.3 61.76C62 60.9 60.8 60.92 59.37 61.44C57.63 62.07 55.8 62.55 53.97 62.85C47.47 63.93 41.02 64.42 34.8 61.39C32.93 60.48 32.33 60.7 31.28 62.18C27.18 67.94 24.24 74.26 22.57 81.11C21.91 83.8 21.48 86.67 21.67 89.4C22.32 98.9 26.89 106.25 35.09 111.03C38.68 113.12 42.6 114.84 46.58 116.01C57.11 119.11 67.87 121.06 79.39 120.8V120.82ZM48.02 56.79C49.86 56.61 52.64 56.39 55.4 56.02C56.64 55.85 57.63 54.98 57.57 53.69C57.3 47.96 59.24 42.71 60.88 37.38C62.26 32.92 63.17 28.37 62.93 23.65C62.68 18.58 60.91 14.15 57.73 10.23C55.68 7.7 52.92 6.36 49.79 6.55C42.71 6.98 36.74 9.78 32.61 15.79C30.31 19.14 29.86 22.69 32.01 26.28C33.44 28.67 35.04 30.95 36.58 33.28C37.86 35.22 39.3 37.06 40.43 39.08C42.36 42.51 42.55 46.16 41.15 49.85C40.74 50.94 40.24 51.99 39.82 53.07C38.9 55.44 39.25 56.16 41.49 56.37C43.34 56.54 45.21 56.61 48.02 56.79V56.79ZM61.45 149.88C61.16 149.46 60.96 148.86 60.7 148.83C57.04 148.46 53.37 148.15 49.7 147.87C49.28 147.84 48.79 148.05 48.42 148.28C47.54 148.84 46.37 152.77 46.73 153.88C47.08 154.97 47.47 156.04 47.87 157.11C48.26 158.14 49.07 158.47 50.06 158.16C54.09 156.87 57.73 154.92 60.49 151.62C60.92 151.11 61.15 150.44 61.45 149.88V149.88ZM97.38 145.46C97.06 145.22 96.66 144.71 96.43 144.77C92.92 145.81 89.43 146.91 85.95 148.02C84.26 148.56 83.61 151.31 84.94 152.52C85.78 153.28 86.8 153.84 87.7 154.53C89.28 155.73 89.92 155.85 91.08 154.39C93.22 151.72 95.17 148.89 97.18 146.11C97.31 145.93 97.32 145.68 97.38 145.45V145.46ZM15.81 27.17C18.31 27.17 19.69 27.21 21.07 27.17C23.41 27.09 24.03 26.1 23.48 23.48C23.17 22.04 22.46 21.64 21.03 22.05C17.95 22.95 14.86 23.82 11.79 24.74C11.37 24.86 11 25.19 10.66 25.48C10.52 25.61 10.49 25.91 10.5 26.13C10.51 26.28 10.67 26.53 10.79 26.55C12.83 26.82 14.87 27.05 15.81 27.17V27.17Z" fill="black"/>
<path d="M71.92 74C71.76 74.32 71.51 75.26 70.92 75.86C67.83 79.03 63.23 79.34 59.68 76.55C59.06 76.07 58.82 74.99 58.61 74.14C58.42 73.36 59.67 72.1 60.28 72.43C63.51 74.2 66.43 73.09 69.41 71.72C70.42 71.25 71.97 72.42 71.91 74H71.92Z" fill="black"/>
<path d="M91.68 73.97C92.13 74.7 91.65 75.34 91.45 75.71C89.05 80.08 84.01 80.91 80.41 77.46C79.86 76.93 79.68 75.8 79.7 74.96C79.71 74.51 80.75 73.62 80.94 73.71C83.9 75.13 86.66 74.86 89.47 73.24C89.93 72.97 91.28 73.34 91.67 73.97H91.68Z" fill="black"/>
<path d="M74.44 88.63C72.56 88.44 70.55 87.53 69.24 85.39C68.7 84.5 68.71 83.58 69.5 82.95C69.94 82.6 70.93 82.3 71.26 82.54C73.74 84.35 76.24 84.56 78.99 83.17C79.34 82.99 80.37 83.53 80.66 84C80.96 84.48 80.96 85.39 80.72 85.93C79.6 88.41 77.38 88.8 74.45 88.63H74.44Z" fill="black"/>
<path d="M95.65 85.88C93.51 86.34 90.59 85.89 89.31 84.92C88.92 84.63 88.48 83.69 88.56 83.13C88.64 82.61 89.33 81.8 89.79 81.78C92.34 81.66 94.84 81.68 97.22 80.43C97.75 80.15 98.99 80.71 99.59 81.23C100.38 81.92 99.88 83.3 98.91 84.23C97.97 85.13 96.91 85.61 95.66 85.88H95.65Z" fill="black"/>
<path d="M61.44 95.74C60.84 95.62 59.58 95.64 58.64 95.09C57.75 94.57 57.05 93.54 56.56 92.58C56.16 91.81 57.35 90.96 59.12 91.25C61.31 91.61 63.21 91.1 65.17 90.28C65.6 90.1 66.58 90.53 66.89 90.98C67.22 91.44 67.28 92.34 67.07 92.91C66.21 95.24 64.18 95.66 61.44 95.76V95.74Z" fill="black"/>
<path d="M90.2 92.14C91.04 93.66 88.41 96.22 86.44 96.67C84.3 97.15 82.31 96.83 80.5 95.49C79.35 94.64 78.83 93.41 79.39 92.6C80.09 91.58 80.98 91.85 81.84 92.22C83.46 92.93 84.95 92.74 86.5 91.91C87.26 91.51 88.24 91.44 89.13 91.4C89.48 91.39 89.99 91.75 90.2 92.14V92.14Z" fill="black"/>
<path d="M44.07 17.9C44.17 19.62 42.53 21.35 40.69 21.45C38.96 21.55 37.65 20.46 37.43 18.72C37.18 16.74 38.47 14.92 40.22 14.76C41.96 14.61 43.97 16.24 44.07 17.89V17.9Z" fill="black"/>
</g>
<defs>
<clipPath id="clip0_1_10">
<rect width="164.09" height="165.48" fill="white"/>
</clipPath>
</defs>
</svg>
