<svg width="174" height="153" viewBox="0 0 174 153" fill="none" xmlns="http://www.w3.org/2000/svg">
<g clip-path="url(#clip0_1_31)">
<path d="M70.3 126.18C59.64 133.05 48.5 136.27 36.03 133.51C33.07 132.86 30.32 132.17 29.43 128.63C29.27 127.99 28.02 127.5 27.18 127.19C25.58 126.6 23.9 126.26 22.29 125.69C19.27 124.61 17.18 122.85 17.68 119.21C17.82 118.17 17.31 117.39 16.2 117.03C14.57 116.5 12.97 115.91 11.37 115.3C8.58 114.23 6.78 112.53 7.54 109.2C7.84 107.87 7.28 106.89 6.26 106.03C4.96 104.92 3.57 103.84 2.56 102.5C1.55 101.17 0.710001 99.6 0.250001 98.01C-0.519999 95.39 0.250001 92.48 3.6 91.82C4.79 91.59 5.93 91.1 7.1 90.75C8.42 90.36 9.2 89.54 9.06 88.12C8.75 85.09 10.36 83.64 13.07 82.96C15.67 82.31 18.25 81.55 20.84 80.85C22.39 80.43 23.45 79.6 23.43 77.82C23.32 66.22 26.17 55.06 28.56 43.85C29.42 39.79 30.38 35.81 30.27 31.59C30.17 28.04 32.16 25.58 35.69 24.7C38.52 24 41.46 23.7 44.37 23.45C47.04 23.21 49.74 23.19 52.43 23.21C58.79 23.25 65.1 22.85 71.41 21.88C80.73 20.45 90.02 20.92 98.73 24.87C101.61 26.18 103.93 24.84 106.49 24.64C107.19 24.59 107.94 23.41 108.43 22.61C109.69 20.52 110.74 18.31 112 16.22C112.95 14.65 114.51 13.44 116.27 14.25C118.58 15.31 119.85 14.15 121.44 12.91C124.9 10.21 128.48 7.65001 132.03 5.07001C133.27 4.17001 134.77 3.63001 136.15 4.45001C138.2 5.67001 139.79 4.93001 141.55 3.87001C143.64 2.62001 145.82 1.48001 148.03 0.460006C150.5 -0.679994 153.06 0.480006 153.85 3.06001C154.2 4.21001 154.36 5.45001 154.42 6.66001C154.52 8.61001 154.44 10.57 154.5 12.52C154.53 13.48 154.36 14.84 154.9 15.32C157.68 17.78 157.43 20.94 157.43 24.13C157.43 25.04 157.68 26.18 158.25 26.83C160.89 29.83 160.43 33.12 159.42 36.5C159.07 37.67 158.83 38.9 158.3 39.98C157.44 41.72 157.81 43.03 158.8 44.68C166.05 56.75 170.99 69.67 172.23 83.8C172.74 89.63 173.17 95.49 173.24 101.34C173.32 107.74 172.08 113.96 169.67 119.94C163.04 136.37 151.14 146.6 133.79 150.3C122.69 152.66 111.53 153.09 100.33 150.75C92.16 149.04 85.13 145.46 79.89 138.82C77.32 135.56 74.86 132.21 72.35 128.9C71.62 127.94 70.88 126.99 70.27 126.2L70.3 126.18ZM145.44 16.97C147.58 15.5 147.2 13.13 147.44 11.04C147.51 10.46 146.96 9.73001 146.53 9.22001C146.41 9.08001 145.59 9.37001 145.22 9.64001C142.48 11.66 139.77 13.72 137.06 15.78C135.62 16.88 133.82 17.75 132.35 16.65C129.92 14.83 128.33 15.86 126.64 17.51C124.72 19.38 122.78 21.22 120.94 23.17C119.56 24.64 118.12 25.81 115.96 25.8C114.58 25.8 113.78 26.72 113.31 27.93C112.78 29.29 112.25 30.65 111.74 32.02C111.01 33.98 109.88 35.46 107.55 35.42C105.69 35.39 105.04 36.56 104.74 38.11C104.6 38.83 104.5 39.55 104.37 40.27C103.99 42.41 102.89 43.85 100.59 44.04C99.43 44.13 98.76 44.81 98.75 45.86C98.73 47.55 98.82 49.26 99.1 50.93C99.27 51.95 100.18 52.69 101.24 52.43C105.49 51.41 109.74 50.34 113.93 49.11C114.72 48.88 115.52 47.99 115.92 47.2C121.95 35.33 130.71 25.53 139.72 15.93C140.54 15.06 141.5 14.16 142.58 13.76C143.25 13.51 144.55 13.91 145.04 14.48C145.57 15.1 145.49 16.25 145.68 17.16C142.18 20.88 138.53 24.47 135.21 28.34C130.93 33.34 126.9 38.56 122.8 43.71C122.2 44.46 121.73 45.34 121.36 46.22C121.26 46.46 121.78 47.28 121.94 47.26C123.63 47.04 125.34 46.84 126.98 46.39C134.71 44.29 142.44 42.16 150.14 39.94C152.52 39.25 153.86 35.02 152.03 33.27C150.22 31.52 149.52 29.8 149.95 27.45C150.04 26.97 150.22 26.42 150.07 26.01C149.77 25.15 149.47 23.84 148.85 23.62C145.52 22.43 145.76 19.58 145.42 16.96L145.44 16.97ZM111.01 121.41C116.38 121.83 121.99 120.18 127.57 118.33C133.82 116.25 138.69 112.34 142.5 107.04C148.47 98.74 150.69 89.41 149.88 79.34C149.15 70.29 146.49 61.64 144.03 52.96C143.58 51.35 142.29 50.56 140.67 50.84C137.79 51.33 134.94 52.02 132.07 52.53C126.55 53.52 120.98 54.27 115.5 55.43C107.86 57.05 100.32 59.07 93.23 62.47C86.72 65.59 81.14 69.85 76.96 75.75C71.42 83.57 70.6 91.94 74.54 100.71C77.98 108.37 83.44 114.03 91.19 117.43C97.32 120.13 103.73 121.37 111.03 121.42L111.01 121.41ZM31.16 71.78C30.48 89.33 40.39 102.4 56.01 107.42C58.04 108.07 60.31 108.1 62.47 108.18C63.46 108.22 64.48 107.43 64.25 106.31C63.01 100.41 64.77 94.64 64.86 88.8C64.96 81.93 67.66 75.98 71.98 70.74C77.04 64.61 83.21 59.91 90.47 56.64C92.01 55.95 93.79 55.42 94.92 54.28C96.36 52.83 94.53 51.1 94.51 49.45C94.48 47.01 94.41 44.57 94.29 42.13C94.12 38.64 94.82 35.77 98.9 35.06C99.09 35.03 99.37 34.73 99.37 34.57C99.34 33.92 99.34 33.21 99.08 32.64C98.91 32.28 98.32 32.07 97.87 31.91C88.46 28.44 78.81 27.94 68.98 29.5C68.74 29.54 68.46 29.57 68.29 29.71C67.93 30.02 67.37 30.39 67.37 30.75C67.37 32.43 67.21 34.21 67.73 35.74C68.03 36.64 69.42 37.34 70.47 37.78C75.03 39.7 79.2 42.15 82.69 45.69C84.43 47.45 85.98 49.39 86.48 51.84C86.63 52.59 86.05 53.84 85.4 54.31C84.79 54.76 83.4 54.87 82.8 54.46C81.63 53.66 80.75 52.42 79.78 51.33C76.77 47.97 73 45.75 68.84 44.19C67.49 43.68 65.99 43.31 64.56 43.33C62.12 43.36 60.53 44.86 59.63 47.08C58.91 48.86 60.32 49.75 61.24 50.81C64.28 54.32 67.35 57.79 70.37 61.31C71.03 62.08 70.78 63.58 69.98 63.84C69.34 64.05 68.47 64.25 67.94 63.98C66.88 63.44 65.9 62.66 65.04 61.82C62.61 59.42 60.28 56.9 57.86 54.48C55.11 51.73 54.86 51.75 51.81 54.1C50.27 55.29 49.92 56.28 50.86 57.82C53.03 61.36 55.26 64.87 57.58 68.31C58.67 69.92 60.09 71.31 61.22 72.9C61.75 73.65 62.2 74.66 61.12 75.47C60.22 76.14 59.16 76.11 58.44 75.43C56.67 73.77 54.83 72.1 53.42 70.15C50.99 66.79 48.87 63.21 46.6 59.73C45.77 58.45 44.88 58.43 43.6 59.33C42.02 60.44 41.39 61.74 41.93 63.7C44.11 71.59 48.01 78.59 52.85 85.12C53.72 86.3 54.74 87.37 55.53 88.59C56.08 89.43 56.09 90.43 55.32 91.27C54.55 92.1 53.49 92.26 52.68 91.7C51.29 90.74 49.89 89.67 48.83 88.37C43.54 81.89 39.23 74.84 36.78 66.76C36.36 65.37 35.87 63.99 35.36 62.63C35.12 62 33.21 61.96 32.76 62.6C32.35 63.18 31.82 63.81 31.75 64.46C31.47 66.88 31.34 69.33 31.16 71.77V71.78ZM166.15 96.04C165.36 89.28 164.72 82.49 163.73 75.75C162.48 67.22 158.6 59.52 155.58 51.57C154.99 50.02 153.86 48.64 152.81 47.33C152.52 46.97 151.61 47.09 150.99 46.99C150.97 47.41 150.84 47.86 150.94 48.25C152.48 54.14 154.15 59.99 155.58 65.91C157.26 72.82 157.75 79.86 157.34 86.96C156.43 102.87 145.6 121.03 127.18 126.16C125.77 126.55 124.38 127 122.96 127.35C121.66 127.67 121.02 128.43 120.51 129.7C118.6 134.37 117.32 139.45 112.66 142.45C112.42 142.61 112.32 143.41 112.49 143.67C112.71 144 113.31 144.29 113.73 144.27C117.62 144.04 121.5 143.8 125.38 143.46C131.26 142.95 136.86 141.32 142.26 139C147.75 136.64 152.22 133.02 155.88 128.26C163.19 118.74 166.17 107.95 166.15 96.05V96.04ZM44.3 127.32C49.89 127.3 56.4 126.15 60.9 124.43C62.25 123.91 63.57 123.25 64.79 122.47C66.68 121.26 67.01 119.83 66.19 117.37C65.85 116.35 65.11 115.53 64.08 115.88C60.72 117.04 57.4 117.01 54 116.17C40.98 112.96 32.08 104.93 26.65 92.85C25.95 91.3 25.54 89.63 24.98 88.02C24.52 86.69 23.59 86.09 22.18 86.37C20.93 86.62 19.39 87.27 19.59 88.5C20.34 93.14 17.68 94.54 13.91 95.26C12.48 95.53 11.11 96.1 9.73 96.6C9.31 96.75 8.62 97.18 8.65 97.35C8.8 98.02 9.02 98.9 9.52 99.21C12.2 100.89 15.01 102.36 17.71 104.02C19.5 105.13 20.31 106.68 19.94 108.97C19.64 110.81 20.48 111.67 22.18 111.74C23.87 111.81 25.57 111.59 27.27 111.6C31.26 111.62 32.74 113.98 31.27 117.87C30.68 119.43 30.9 120.04 32.24 120.56C32.69 120.74 33.16 120.93 33.63 121.01C36.3 121.42 38.09 122.67 38.68 125.52C38.82 126.17 39.97 126.9 40.77 127.07C42.18 127.38 43.68 127.29 44.3 127.32V127.32ZM48.52 30.47V30.2C46.57 30.2 44.62 30.18 42.67 30.2C41.21 30.22 39.74 30.24 38.29 30.38C36.6 30.54 35.64 31.46 35.66 33.26C35.73 39.89 34.09 46.31 33.37 52.84C33.21 54.31 33.88 54.98 35.58 54.91C36.53 54.87 37.7 54.93 38.36 54.41C39.7 53.35 41.11 52.58 42.64 51.8C46.94 49.6 50.32 46.02 53.73 42.73C56.41 40.14 58 36.41 60.04 33.16C60.77 32 60.07 30.51 58.76 30.48C55.35 30.42 51.93 30.46 48.52 30.46V30.47ZM74.09 114.07C74.32 115.63 74.26 116.35 74.53 116.93C77.85 124.07 82.78 130.11 88.06 135.81C89.97 137.88 92.77 139.15 95.22 140.69C96.73 141.64 98.33 141.81 100.07 141.07C101.39 140.51 103 140.55 104.22 139.86C105.67 139.04 106.78 137.65 108.15 136.66C109.35 135.79 110.56 134.98 110.92 133.45C111.27 131.96 112.72 130.78 112.56 128.83C98.01 128.66 84.96 125.21 74.09 114.09V114.07Z" fill="black"/>
<path d="M140.3 59.34C139.94 60.62 139.43 62.24 139.02 63.88C137.76 68.84 136.3 73.76 135.36 78.78C133.67 87.86 128.8 94.53 120.62 98.54C116.27 100.67 111.52 102 106.92 103.61C105.08 104.26 103.14 104.6 101.31 105.26C98.53 106.26 95.91 107.54 94.27 110.22C93.9 110.83 93.35 111.38 92.79 111.83C91.79 112.63 90.64 112.94 89.38 112.45C88.13 111.97 87.38 110.42 87.93 108.75C89.86 102.92 90.41 96.83 91.52 90.84C92.96 83.08 97 76.7 104.23 72.97C108.34 70.85 112.62 68.95 117.01 67.52C123.87 65.28 130.12 62.21 135.11 56.88C135.6 56.36 136.23 55.95 136.83 55.54C137.74 54.92 139.47 55.66 139.75 56.77C139.93 57.48 140.07 58.2 140.32 59.33L140.3 59.34ZM98.76 95.59C98.59 98.75 99.43 99.52 101.26 98.88C106.31 97.11 111.42 95.44 116.35 93.37C120.7 91.55 124.26 88.65 126.54 84.33C128.98 79.71 129.29 74.53 130.55 69.61C130.59 69.47 129.76 68.86 129.55 68.95C123.34 71.75 117.16 74.64 110.96 77.47C102.69 81.25 99.33 88.12 98.75 95.59H98.76Z" fill="black"/>
</g>
<defs>
<clipPath id="clip0_1_31">
<rect width="173.28" height="152.28" fill="white"/>
</clipPath>
</defs>
</svg>
