<svg width="164" height="169" viewBox="0 0 164 169" fill="none" xmlns="http://www.w3.org/2000/svg">
<g clip-path="url(#clip0_1_76)">
<path d="M25.15 93.37C22.09 89.42 19.2 85.65 15.9 82.16C12.74 78.82 10.48 74.79 8.89998 70.45C8.08998 68.24 8.30998 66.03 10.36 64.61C12.05 63.44 12.28 62.42 11.37 60.55C9.16998 56.02 7.05998 51.42 5.27998 46.7C4.45998 44.52 4.31998 42.01 4.24998 39.64C4.21998 38.6 4.84998 36.99 5.66998 36.56C8.87998 34.87 7.59998 32.92 6.57998 30.63C4.52998 26.02 2.55998 21.36 0.859978 16.62C0.149978 14.64 -0.0600224 12.37 0.00997759 10.25C0.149978 6.26 2.90998 4.16 6.80998 4.84C14.19 6.13 21.36 8.1 28.15 11.34C29.2 11.84 30.41 12.5 31.48 12.39C32.95 12.25 32.53 10.48 33.08 9.5C34.3 7.32 36.38 6.68 38.57 7.97C40.43 9.06 42.21 10.33 43.95 11.62C46.84 13.76 49.68 15.99 52.53 18.16C57.22 13.24 58.18 13.19 62.15 17.97C67.56 24.49 72.34 31.4 75.31 39.42C75.44 39.77 75.99 40.15 76.36 40.16C76.73 40.16 77.31 39.82 77.47 39.48C79.25 35.54 80.87 31.51 82.75 27.62C83.61 25.83 85.11 24.39 87.38 25.16C88.75 25.62 89.68 25.3 90.57 24.35C93.53 21.19 96.48 18.01 99.46 14.86C100.45 13.81 101.49 12.8 102.6 11.87C104.23 10.5 106.19 9.94 107.83 11.5C109.87 13.45 111.47 12.89 113.54 11.59C117.61 9.02 121.86 6.75 126.01 4.29C128.56 2.78 130.97 2.43 133.19 4.81C134.58 6.31 136.16 5.95 137.85 5.46C143.63 3.81 149.42 2.2 155.22 0.6C156.14 0.34 157.09 0.1 158.04 0.02C160.94 -0.23 163.28 1.71 163.33 4.64C163.38 7.03 163.23 9.47 162.82 11.82C162.36 14.41 161.73 17.03 160.74 19.46C159.4 22.75 158.56 25.61 161.97 28.28C163.03 29.11 162.96 30.85 162.59 32.37C161.85 35.45 160.77 38.37 159 40.99C157.52 43.18 155.91 45.29 154.34 47.42C153.58 48.46 153.24 49.43 154.03 50.67C155.86 53.55 155.18 56.29 153.01 58.59C149.04 62.78 144.97 66.88 140.82 70.89C139.26 72.4 137.58 73.62 137.24 76.06C136.92 78.34 135.14 79.86 133.3 81.02C130.67 82.69 127.89 84.14 125.14 85.63C123.67 86.43 122.09 87.06 120.67 87.93C120.05 88.31 119.99 89.1 120.74 89.61C121.34 90.02 121.95 90.4 122.6 90.72C131.12 94.84 137.09 101.77 142.67 109.08C144.17 111.05 144.39 112.92 142.05 114.74C140.61 115.87 140.49 116.76 141.45 118.3C144.39 122.99 147.2 127.77 150 132.54C150.72 133.78 151.54 135.09 151.75 136.46C151.95 137.78 151.94 139.81 151.14 140.48C148.72 142.51 149.41 144.44 150.3 146.81C152.07 151.54 153.68 156.33 155.17 161.16C156.28 164.77 154.58 167.34 150.84 167.8C144.04 168.63 137.31 168.19 130.98 165.43C126.14 163.32 121.5 160.74 116.78 158.36C115.25 157.59 114.65 157.83 114.26 159.44C114.15 159.9 114.21 160.41 114.09 160.87C113.06 164.66 110.59 166.07 107.12 164.7C103.92 163.43 101.34 161.23 99.1 158.68C97.19 156.51 95.47 154.18 93.6 151.97C92.97 151.22 92.14 150.78 91.08 151.32C87.81 153.01 85.02 151.74 82.36 149.83C79.61 147.85 77.01 145.69 75.13 142.83C73.29 140.01 71.58 137.11 69.78 134.26C68.93 132.92 68.82 130.55 66.91 130.65C65.84 130.7 64.83 132.46 63.85 133.5C62.27 135.16 60.3 136.79 58.2 135.3C55.54 133.42 54.23 134.53 52.21 136.25C49.31 138.73 45.97 140.72 42.75 142.82C41.76 143.46 40.43 144.31 39.45 144.11C36.37 143.47 34.58 145.1 32.6 146.96C29.58 149.81 25.85 151.58 22 153.02C18.85 154.2 15.63 155.17 12.4 156.12C9.74998 156.9 7.65998 155.77 6.78998 153.04C6.27998 151.46 5.96998 149.77 5.83998 148.11C5.31998 141.57 6.09998 135.13 7.80998 128.81C8.24998 127.18 8.71998 125.56 9.27998 123.98C9.77998 122.58 9.50998 121.74 7.96998 121.37C7.04998 121.15 6.09998 120.86 5.29998 120.37C3.56998 119.28 2.92998 117.18 3.75998 115.34C4.34998 114.03 5.06998 112.77 5.86998 111.57C9.39998 106.31 13.84 101.93 18.85 98.09C20.94 96.49 23.06 94.93 25.16 93.35L25.15 93.37ZM114.1 146.16C113.3 142.32 113.5 138.43 114.49 134.72C115.17 132.2 114.57 130.54 112.86 128.93C111.64 127.78 110.5 126.55 109.25 125.43C108.96 125.17 108.28 125.06 107.94 125.23C107.6 125.39 107.29 125.97 107.27 126.38C107.06 129.98 106.96 133.58 106.71 137.18C106.63 138.33 106.28 139.49 105.87 140.58C105.48 141.6 103.36 141.77 102.81 140.83C102.22 139.82 101.47 138.69 101.47 137.61C101.47 133.54 101.7 129.46 101.93 125.39C102.02 123.72 102.5 122.05 102.47 120.39C102.46 119.56 101.78 118.69 101.25 117.94C101.04 117.64 100.4 117.44 100 117.5C99.62 117.56 99.08 117.97 99 118.31C98.61 119.94 98.51 121.64 98.02 123.23C96.92 126.8 94.08 127.95 90.71 126.29C89.66 125.77 88.69 125.11 87.66 124.51C87.3 125.19 87 125.58 86.88 126.02C86.59 127.14 86.68 128.5 85.13 128.77C83.97 128.97 82.81 127.61 82.71 125.78C82.61 124.1 82.78 122.41 82.66 120.74C82.57 119.57 82.28 118.4 81.92 117.28C81.57 116.19 80.1 115.81 79 116.36C77.3 117.2 75.58 118.01 73.86 118.83C72.7 119.39 72.14 120.58 72.64 121.81C75.37 128.53 78.85 134.81 83.58 140.36C83.89 140.72 84.25 141.16 84.67 141.27C85.27 141.43 85.97 141.45 86.55 141.27C86.93 141.15 87.15 140.56 87.47 140.21C91.12 136.16 93.26 136.3 96.39 140.85C97.48 142.43 98.43 144.12 99.53 145.69C100.77 147.46 102.07 149.19 103.42 150.87C104.4 152.1 105.28 151.97 105.77 150.21C106.83 146.42 109.19 145.27 112.84 146.09C113.29 146.19 113.79 146.03 114.27 145.99C114.61 146.58 114.8 147.36 115.3 147.72C120.38 151.42 125.74 154.71 131.6 156.97C135.39 158.43 139.44 159.26 143.41 160.2C145.41 160.67 146.45 159.22 145.8 157.11C145.45 155.96 145.04 154.82 144.55 153.72C142.59 149.32 140.68 144.9 138.58 140.57C137.4 138.14 137.26 135.99 139.24 133.96C140.46 132.71 140.32 131.42 139.41 130.08C137.1 126.7 134.87 123.26 132.49 119.94C131.09 117.99 129.34 116.28 127.93 114.34C126.31 112.11 126.88 109.64 129.24 108.17C130.23 107.55 131.34 107.13 132.57 106.53C126.9 99.29 119.65 94.74 111.33 91.83C109.84 91.31 108.01 91.37 106.41 91.63C102.56 92.25 102.7 92.76 103.5 96.78C104.21 100.31 105.76 101.6 109.27 101.52C111.38 101.47 113.53 102.2 115.63 102.69C116.55 102.9 117.58 103.19 118.24 103.79C118.84 104.34 119.22 105.35 119.28 106.19C119.3 106.52 118.2 107.27 117.63 107.25C115.23 107.17 112.81 107.06 110.46 106.62C106.56 105.88 102.82 106.23 98.8 107.53C100.74 109.29 102.56 110.8 104.22 112.48C106.02 114.31 107.88 115.17 110.61 114.67C113.19 114.19 115.89 114.41 118.54 114.37C119.5 114.36 120.47 114.44 121.42 114.58C121.88 114.65 122.41 114.83 122.71 115.15C123.17 115.64 123.76 116.31 123.74 116.88C123.72 117.43 123.04 118.34 122.56 118.42C119.72 118.84 116.85 119.04 114.01 119.4C113.71 119.44 113.2 120.31 113.28 120.42C115.43 123.25 117.16 126.58 121.31 127.01C125.9 127.48 130.33 128.61 134.36 130.88C135 131.24 135.57 132.55 135.42 133.27C135.29 133.92 134.19 134.54 133.4 134.82C132.79 135.04 131.99 134.71 131.27 134.62C129.66 134.41 128.04 134.19 126.43 133.97C126.04 136.25 128.07 137.14 129.13 138.54C131.31 141.42 133.76 144.09 135.92 146.99C137.35 148.91 138.52 151.04 139.7 153.13C140.31 154.2 139.73 155.91 138.64 156.12C137.8 156.28 136.78 156.09 135.98 155.73C135.39 155.46 135.01 154.7 134.56 154.14C130.91 149.66 127.32 145.13 123.6 140.72C122.38 139.28 120.83 138.12 119.43 136.84C117.52 138.35 118.33 140.74 117.59 142.63C117.33 143.29 117.33 144.05 117.08 144.72C116.56 146.12 115.27 146.09 114.08 146.19L114.1 146.16ZM26.2 45.4L26.22 45.8C27.85 45.67 29.49 45.55 31.12 45.42C31.73 43.24 30 41.94 29.13 40.35C27.29 36.97 25.25 33.7 23.35 30.34C22.64 29.09 21.99 27.78 21.55 26.42C21.09 25.03 21.04 23.55 22.29 22.42C23.06 21.73 24.69 22.61 25.66 24.27C26.88 26.35 27.97 28.5 29.24 30.54C31.66 34.41 34.16 38.24 36.69 42.05C36.9 42.37 37.56 42.58 37.96 42.52C38.24 42.48 38.57 41.91 38.66 41.53C39.18 39.18 39.57 36.8 40.13 34.47C40.6 32.49 41.59 31.53 42.77 31.59C44.16 31.66 44.98 33.25 44.71 35.62C44.55 37.05 44.26 38.47 43.96 39.88C43.47 42.23 43.06 44.62 42.38 46.92C41.77 48.98 42.17 50.71 43.36 52.36C44.06 53.33 44.78 54.29 45.59 55.17C45.87 55.47 46.44 55.52 46.88 55.68C46.95 55.45 47.03 55.22 47.09 54.99C47.43 53.61 47.3 51.69 48.18 50.95C50.98 48.56 52.09 45.63 52.43 42.13C52.53 41.15 53.55 40.38 54.55 40.78C55.3 41.08 56.23 41.97 56.31 42.68C56.47 44.06 56.18 45.53 55.92 46.93C55.4 49.72 56.15 50.87 58.85 50.97C59.46 50.99 60.36 50.77 60.68 50.33C62.92 47.2 65.68 47.14 68.98 48.41C71.25 49.28 71.64 48.83 71.16 46.78C69.53 39.85 66.2 33.77 61.91 28.17C60.7 26.59 60.55 26.43 58.58 27.77C56.4 29.24 54.51 28.97 52.63 27.49C49.6 25.12 46.63 22.66 43.61 20.27C41.94 18.95 41.71 19.03 40.56 20.98C38.86 23.88 37.42 24.54 34.82 23.35C32.85 22.45 30.99 21.33 29.07 20.34C23.25 17.35 17.19 15.08 10.7 14.07C10.24 14 9.68998 13.85 9.30998 14.02C8.94998 14.18 8.49998 14.75 8.53998 15.09C8.67998 16.26 8.82998 17.49 9.29998 18.55C11.73 24.06 14.28 29.5 16.73 35C17.41 36.53 18.06 38.1 18.41 39.73C18.67 40.95 18.02 42.15 16.85 42.72C16.02 43.13 15 43.16 14.08 43.39C12.93 43.68 12.59 44.54 12.88 45.55C14.56 51.39 17.43 56.67 20.56 61.83C21.56 63.48 22.72 65.03 23.66 66.7C24.73 68.61 24.37 70.14 22.68 71.89C21.88 72.71 20.51 73.48 20.42 74.36C20.33 75.35 21.3 76.52 22 77.48C22.85 78.64 23.85 79.7 24.86 80.72C25.96 81.82 27.16 82.04 28.77 81.52C33.11 80.11 37.52 78.94 41.91 77.7C43.07 77.37 44.24 77.07 45.42 76.85C46.76 76.6 47.62 75.97 47.55 74.51C47.45 72.66 48.5 71.39 49.54 70.03C49.82 69.66 49.65 68.56 49.29 68.16C47.85 66.57 46.53 65.2 43.77 65.92C41.05 66.64 38.05 66.32 35.17 66.36C34.5 66.36 33.7 66.09 33.2 65.66C32.71 65.26 32.23 64.46 32.29 63.9C32.35 63.35 33.02 62.57 33.57 62.43C34.71 62.12 35.95 62.2 37.14 62.06C38.74 61.87 40.85 62.46 41.58 60.55C42.28 58.72 40.3 57.66 39.48 56.28C38.99 55.46 38.31 54.75 37.8 53.93C36.83 52.35 35.47 51.79 33.61 51.64C29.78 51.33 25.96 50.76 22.15 50.21C20.9 50.03 19.93 49.32 19.79 47.92C19.66 46.67 21.11 45.26 22.63 45.24C23.83 45.22 25.02 45.37 26.22 45.44L26.2 45.4ZM66.94 93.7C62.42 96.27 62.44 96.27 63.01 100.49C63.23 102.16 63.49 103.85 63.46 105.52C63.43 107.42 63.26 109.36 62.78 111.19C62.63 111.77 61.33 112.25 60.5 112.36C60.12 112.41 59.29 111.51 59.2 110.95C58.83 108.83 58.84 106.63 58.41 104.52C57.88 101.91 57.39 100.7 54.97 103.01C53.23 104.67 51.39 106.24 49.57 107.82C47.27 109.82 45.64 111.82 47.02 115.3C47.78 117.22 47.49 119.57 47.57 121.74C47.6 122.44 47.51 123.31 47.11 123.8C46.57 124.47 45.73 125.07 44.92 125.26C44.51 125.36 43.57 124.6 43.39 124.05C42.7 122.02 42.26 119.9 41.64 117.84C41.56 117.59 40.78 117.27 40.57 117.4C39.76 117.88 38.95 118.45 38.31 119.14C33.84 123.87 29.42 128.64 24.96 133.38C24.15 134.24 23.3 135.11 22.32 135.77C21.47 136.34 20.31 136.24 19.73 135.4C19.27 134.71 18.92 133.53 19.21 132.84C19.75 131.54 20.67 130.35 21.61 129.27C25.1 125.28 28.66 121.35 32.2 117.42C33.65 115.81 35.14 114.25 36.59 112.64C37.01 112.17 36.44 111.17 35.73 111.13C34.53 111.07 33.33 111 32.13 111.03C29.97 111.07 27.82 111.23 25.66 111.22C25.32 111.22 24.83 110.71 24.69 110.33C24.55 109.94 24.58 109.27 24.83 109C25.45 108.32 26.17 107.44 26.98 107.27C31.21 106.39 35.47 105.28 39.84 106.24C41.42 106.58 42.68 106.36 43.79 105.23C46.66 102.31 49.56 99.42 52.35 96.43C52.6 96.16 52.38 95.04 52.02 94.69C51.55 94.24 50.74 94.11 50.04 93.95C47 93.26 43.93 92.67 40.91 91.87C40.44 91.74 39.88 90.73 39.92 90.17C39.97 89.61 40.61 88.84 41.17 88.63C42.03 88.3 43.09 88.16 43.99 88.32C47.07 88.85 50.12 89.54 53.17 90.2C54.57 90.5 55.95 91.02 57.36 91.19C58.83 91.38 63.27 88.74 63.19 87.52C63.05 85.49 60.8 85.48 59.42 84.67C57.3 83.44 55.02 82.67 52.53 82.89C46.27 83.46 40.15 84.71 34.33 87.15C33.99 87.29 33.71 88.4 33.91 88.82C34.19 89.41 34.94 89.77 35.5 90.22C37.81 92.1 38.34 94.99 35.11 97.53C33.79 98.57 32.28 99.36 30.91 100.34C26.02 103.84 21 107.19 17.25 111.97C17.59 112.49 17.77 112.96 18.11 113.27C22.21 117.01 22.3 117.28 20.48 121.78C20.03 122.9 19.43 123.95 19.02 125.08C16.71 131.46 15.06 137.98 15.41 144.85C15.49 146.43 16.35 147.12 17.64 146.62C24.37 144.02 29.98 140.12 33.19 133.38C33.5 132.73 33.84 132.08 34.24 131.49C35.85 129.14 38.09 128.9 40.35 130.82C43.19 133.23 43.34 133.32 45.41 131.34C47.15 129.69 48.74 127.87 50.3 126.04C51.08 125.13 51.58 123.99 52.32 123.05C54.04 120.87 56.13 120.7 58.59 122.51C58.97 122.79 59.23 123.22 59.54 123.58C60.42 124.58 61.47 124.22 61.96 123.41C64.08 119.92 66.08 116.36 68.01 112.76C68.44 111.96 68.64 110.9 68.56 110C68.07 104.53 67.47 99.07 66.91 93.68L66.94 93.7ZM92.69 65.11C94.33 63.62 95.33 62.6 96.45 61.73C98.72 59.96 99.58 57.78 99.55 54.84C99.48 48.53 101.12 42.45 102.71 36.39C103.06 35.04 103.83 33.75 104.63 32.59C104.93 32.16 105.95 31.92 106.52 32.06C107.1 32.2 107.87 32.88 107.95 33.41C108.12 34.56 108.02 35.79 107.82 36.95C107.1 41.22 106.26 45.46 105.57 49.73C105.48 50.29 105.93 50.98 106.26 51.53C106.32 51.62 107.19 51.37 107.53 51.09C109.2 49.71 110.79 48.23 112.47 46.87C114.41 45.29 115.39 43.38 115.92 40.84C116.9 36.15 118.45 31.57 119.92 26.99C120.26 25.92 121.17 25 121.94 24.12C122.18 23.84 122.93 23.67 123.24 23.84C123.84 24.15 124.49 24.65 124.75 25.23C125.01 25.81 124.94 26.63 124.78 27.29C124.16 29.86 123.41 32.4 122.79 34.97C122.7 35.36 122.91 35.96 123.2 36.25C123.38 36.43 124.1 36.35 124.35 36.13C129.78 31.37 135.18 26.56 140.6 21.77C142.04 20.5 143.45 19.17 144.99 18.03C146.26 17.09 147.58 17.26 148.97 18.19C151.34 19.76 151.45 19.69 152.14 17.55C152.73 15.72 153.21 13.86 153.68 12C153.93 11 153.01 10.2 151.93 10.53C145.72 12.42 139.48 14.25 133.33 16.31C130.3 17.32 127.43 18.34 124.28 16.72C123.59 16.37 122.46 16.6 121.64 16.87C120.75 17.16 119.96 17.79 119.15 18.31C115.72 20.54 112.3 22.79 108.86 25.01C107.24 26.05 105.5 27.35 103.54 26.53C100.61 25.3 99 26.79 97.53 28.87C95.45 31.82 93.4 34.8 91.37 37.78C90.39 39.22 89.21 40.74 87.41 40.55C84.15 40.19 83.23 42.24 82.47 44.63C81.45 47.84 80.33 51.03 79.58 54.31C79.16 56.14 78.94 58.21 79.38 60C80.41 64.18 81.87 68.26 83.22 72.37C83.34 72.72 83.97 73.18 84.31 73.14C85.55 73 88.04 70.02 87.68 68.89C85.78 62.85 87.64 56.94 88.17 51C88.33 49.16 89.13 47.32 89.98 45.64C90.23 45.14 91.65 44.99 92.47 45.11C92.91 45.18 93.57 46.19 93.53 46.74C93.21 51.05 92.67 55.34 92.36 59.64C92.25 61.2 92.55 62.78 92.72 65.14L92.69 65.11ZM148.49 25.24L148.38 24.08C148.01 24.13 147.53 24.05 147.3 24.26C145 26.37 142.75 28.56 140.45 30.68C136.56 34.27 132.62 37.81 128.73 41.4C127.37 42.65 127.69 43.78 129.57 44.48C130.69 44.9 131.87 45.19 132.99 45.61C133.66 45.86 134.51 46.11 134.85 46.63C135.32 47.35 135.6 48.35 135.53 49.19C135.49 49.69 134.65 50.46 134.1 50.51C132.69 50.66 131.21 50.69 129.83 50.41C127.72 49.97 125.66 49.26 123.61 48.58C122.64 48.25 121.71 48.08 120.91 48.8C117.88 51.53 114.86 54.29 111.88 57.08C111.14 57.77 111.5 58.9 112.54 59.32C113.87 59.87 115.22 60.38 116.59 60.83C118.19 61.36 119.83 61.75 121.43 62.28C122.91 62.78 123.99 64.42 123.7 65.54C123.4 66.72 121.84 67.9 120.36 67.82C118.69 67.73 116.98 67.6 115.39 67.14C112.39 66.28 109.47 65.14 106.49 64.2C105.86 64 104.86 63.86 104.47 64.2C101.95 66.4 99.55 68.73 97.16 71.07C97 71.23 97.19 72.11 97.42 72.22C98.69 72.83 100 73.4 101.35 73.81C103.18 74.35 105.09 74.63 106.89 75.24C107.39 75.41 107.9 76.34 107.92 76.93C107.94 77.53 107.52 78.39 107.01 78.72C106.25 79.22 105.27 79.55 104.36 79.63C100.42 79.97 96.71 79.09 93.25 77.17C92.13 76.55 91.03 76.39 89.84 77C89.05 77.41 88.45 78.83 88.98 79.3C90.78 80.89 92.62 82.43 94.4 84.05C95.57 85.12 96.91 85.43 98.4 85.11C107.6 83.11 116.53 80.32 124.85 75.82C126.27 75.05 126.96 73.99 126.89 72.35C126.79 69.88 128.32 68.41 130.18 67.13C132.56 65.49 134.92 63.83 137.23 62.11C139.59 60.35 141.97 58.75 139.11 55.25C137.85 53.72 138.78 51.5 140.04 49.9C142.72 46.5 145.5 43.18 148.18 39.78C148.92 38.85 149.75 37.82 150 36.71C150.32 35.31 148.71 34.92 147.95 34.07C146.75 32.74 146.17 31.24 146.86 29.44C147.38 28.1 147.88 26.75 148.45 25.25L148.49 25.24ZM75.77 107.51C76.33 106.92 76.77 106.36 77.3 105.9C80.21 103.44 82.5 103.53 84.61 106.24C85.49 107.37 86.14 108.67 87.03 109.8C88.04 111.08 89.18 112.26 90.27 113.48C91.69 111.78 90.79 109.94 90.47 108.2C90.13 106.32 89.63 104.45 88.96 102.67C88.08 100.32 88.63 98.59 90.5 96.96C92.74 95 92.72 94.68 90.92 92.58C89.68 91.13 88.43 89.63 86.95 88.45C82.7 85.06 80 83.22 76.32 90.05C75.43 91.71 73.63 92.85 73.59 94.98C73.52 99.25 73.22 103.55 75.75 107.5L75.77 107.51ZM58.32 59.52C57.79 59.57 57.08 59.47 56.97 59.68C56.69 60.22 56.41 61.01 56.61 61.51C57.41 63.5 58.32 65.46 59.34 67.35C60.72 69.89 61.06 72.29 58.96 74.61C58.17 75.49 58.29 76.27 59.25 76.96C62.19 79.08 65.45 80.47 68.93 81.5C72.41 82.53 74.29 80.19 76.38 78.33C78.34 76.59 75.92 75.42 75.53 74C75.03 72.16 74.43 70.32 73.62 68.6C72.3 65.8 70.85 63.05 69.25 60.4C68.88 59.79 67.29 59.14 66.95 59.4C64.01 61.66 61.16 61.14 58.32 59.51V59.52Z" fill="black"/>
</g>
<defs>
<clipPath id="clip0_1_76">
<rect width="163.33" height="168.2" fill="white"/>
</clipPath>
</defs>
</svg>
