<svg width="187" height="155" viewBox="0 0 187 155" fill="none" xmlns="http://www.w3.org/2000/svg">
<g clip-path="url(#clip0_1_38)">
<path d="M155.86 93.9C152.95 93.62 150.03 93.39 147.13 93.03C145.95 92.88 145.18 93.43 144.78 94.31C143.37 97.42 141.9 100.52 140.77 103.73C136.41 116.16 132.18 128.64 127.87 141.09C127.07 143.39 126.41 145.79 125.24 147.9C120.86 155.81 108.22 156.4 103.01 148.93C102.09 147.61 101.6 145.83 101.37 144.19C100.85 140.45 101.96 136.92 103.38 133.52C104.98 129.69 106.71 125.92 108.42 122.14C112.95 112.11 116.24 101.63 119.38 91.11C119.92 89.29 119.33 88.35 117.51 88.01C114.39 87.42 111.25 86.96 108.15 86.3C105.53 85.74 102.91 85.12 100.37 84.26C96.12 82.82 92.36 80.65 90.17 76.44C89.86 75.84 89.29 75.15 88.7 74.96C88.21 74.81 87.05 75.24 86.98 75.58C86.74 76.72 86.66 77.96 86.87 79.1C87.9 84.61 89.36 90.06 90.07 95.61C91.09 103.59 91.99 111.62 92.21 119.65C92.39 126.21 91.49 132.8 91.07 139.38C90.8 143.6 88.82 146.94 85.31 149.08C76.65 154.36 68.2 154.02 64.58 142.48C63.86 140.17 63.35 137.74 63.18 135.33C62.88 131.19 62.95 127.03 62.8 122.88C62.36 110.65 60.54 98.6 58.25 86.6C57.99 85.22 56.71 84.49 55.5 85.11C48.88 88.45 41.71 90.02 34.54 91.44C30.5 92.24 26.31 92.41 22.18 92.68C18.33 92.94 14.95 91.6 12.18 88.93C2.59 79.69 -2.09 68.88 0.900002 55.28C3.45 43.69 8.66 33.83 17.44 25.77C20.66 22.82 23.61 19.48 26.19 15.95C31.99 8.03001 39.91 3.67001 49.2 1.40001C56.69 -0.439994 64.18 -0.589994 71.61 1.75001C78.88 4.04001 86.46 4.52001 93.95 5.53001C98.05 6.08001 102.13 6.86001 106.2 7.61001C107.39 7.83001 108.55 8.27001 109.7 8.68001C117.85 11.54 124.55 16.06 127.78 24.54C128.3 25.91 128.93 27.67 130.72 27.12C136.22 25.45 141.43 26.99 146.53 28.51C151.42 29.97 156.25 31.83 160.83 34.08C170.8 38.97 178.16 46.68 183.25 56.49C189.54 68.61 185.35 79.81 178.65 87.77C176.67 90.13 173.93 91.19 171.08 91.97C166.11 93.32 161.05 94.08 155.86 93.91V93.9ZM114.84 125.83C115.24 124.78 116.09 123.95 117.16 123.63C118.03 123.37 117.94 123.77 118.38 125C119.15 127.17 119.19 127.22 120.95 125.77C122.21 124.73 123.37 124.12 124.68 125.62C125.12 126.13 125.66 126.86 126.2 125.84C126.88 124.56 127.44 123.2 127.92 121.84C130.29 115.19 132.59 108.51 135 101.87C136.08 98.9 137.38 96 138.54 93.06C138.92 92.09 138.31 91.17 137.18 90.99C133.81 90.45 130.45 89.9 127.06 89.46C124.46 89.12 123.42 90.6 123.49 93.83C123.6 99.25 122.17 104.57 119.17 109.08C118.75 109.71 118.69 110.52 118.71 111.29C118.71 111.5 118.87 111.83 119.04 111.89C119.4 112.03 119.93 112.21 120.19 112.05C121 111.54 121.69 110.82 122.5 110.32C122.87 110.09 123.64 109.95 123.85 110.16C124.33 110.63 124.82 111.32 124.86 111.95C125 114.09 123.87 115.75 122.15 116.81C120.94 117.56 119.48 118.09 118.08 118.27C115.94 118.54 115.26 120 114.77 121.64C114.5 122.54 114.01 124.67 113.93 124.84C112.71 127.46 111.4 130.05 110.38 132.76C109.9 134.05 110.82 134.23 112 133.96C112.6 133.82 113.74 134 113.91 134.36C115 136.78 117.72 138.98 118.24 140.86C118.36 141.31 118.04 142.38 117.61 142.62C116.84 143.06 115.72 143.43 114.93 143.19C113.56 142.78 112.39 141.53 111.04 141.34C110.11 141.21 108.8 142.07 108.09 142.87C107.76 143.24 108.19 144.78 108.74 145.33C109.56 146.14 110.73 146.71 111.86 147.07C116.07 148.43 118.39 147.49 120.26 143.65C121.11 141.9 121.73 140.04 122.36 138.2C123.37 135.25 121.66 132.48 118.56 132.13C115.81 131.82 114.66 130.78 114.32 127.97C114.23 127.25 114.55 126.54 114.83 125.82L114.84 125.83ZM91.91 44.61C94.25 44.77 95.96 44.86 97.66 45.02C98.38 45.09 99.11 45.27 99.8 45.51C104.33 47.15 105.69 52.08 102.36 55.5C100.7 57.21 98.58 58.61 96.45 59.7C93.85 61.03 91.01 61.85 88.29 62.95C86.94 63.5 85.58 64.07 84.38 64.86C83.95 65.14 83.8 66.13 83.86 66.77C83.92 67.47 84.38 68.16 85.33 67.86C86.49 67.5 87.7 67.21 88.79 66.69C94.74 63.86 100.72 61.06 106.58 58.04C109.17 56.7 111.65 55.05 113.92 53.21C121.08 47.44 122.66 38.1 118.08 30.12C116.61 27.56 114.5 26.06 111.56 26.15C107.66 26.27 103.73 26.38 99.88 26.93C95.48 27.56 91.08 27.88 86.74 27.13C80.71 26.08 75.08 27.32 69.53 29.37C64.24 31.33 59.28 33.99 54.61 37.14C45.03 43.61 34.61 48.39 23.9 52.6C22.31 53.23 20.68 53.78 19.15 54.53C18.07 55.06 16.9 55.67 16.13 56.55C9.94 63.62 8.35 73.63 15.5 81.85C18.25 85.01 21.71 86.55 25.94 85.99C35.15 84.78 44.29 83.19 52.95 79.62C53.93 79.21 56.06 79.01 55.45 77.62C54.61 75.72 53.03 77.59 51.85 77.89C47.36 79.02 42.96 80.55 38.43 81.47C35.6 82.04 32.57 82.09 29.68 81.84C25.01 81.43 22.72 76.67 24.96 72.56C26.3 70.09 28.41 68.42 30.84 67.21C34.99 65.14 39.14 63.02 43.45 61.35C55.51 56.67 67.66 52.2 79.78 47.66C81.38 47.06 82.99 46.45 84.64 46.06C87.24 45.44 89.88 44.99 91.93 44.58L91.91 44.61ZM9.16 53.49C11.54 51.93 13.1 50.73 14.82 49.83C16.76 48.81 18.82 48.02 20.87 47.21C31.6 43 41.82 37.9 51.42 31.45C55.65 28.61 60.27 26.23 64.95 24.19C72.21 21.03 79.82 19.49 87.83 20.9C89.72 21.23 91.72 21.2 93.65 21.05C97.06 20.8 100.46 20.41 103.85 19.92C106.22 19.58 108.54 18.97 110.89 18.48C109.37 15.92 106.52 15.83 104.13 15.09C101.11 14.15 97.97 13.43 94.84 13.08C85.6 12.04 76.56 10.06 67.48 8.10001C53.55 5.10001 41.24 8.35001 32.07 19.95C28.72 24.18 25.2 28.21 21.32 31.94C15.38 37.65 11.3 44.46 9.16 53.49V53.49ZM164.72 67.83C164.74 67.62 169.17 67.24 171.36 67.18C172.08 67.16 172.8 66.96 173.5 66.74C176.68 65.74 178.04 62.86 176.63 59.81C175.82 58.05 174.8 56.36 173.72 54.75C164.82 41.42 151.58 35.44 136.38 32.87C135 32.64 133.49 32.98 132.08 33.26C129.79 33.71 129.33 34.29 129.11 36.69C128.85 39.59 129.19 42.64 127.58 45.24C124.53 50.19 122.2 55.66 117.31 59.31C115.99 60.3 116.28 61.32 117.88 61.82C124.45 63.86 131.14 64.95 138.04 64.48C143.68 64.09 149.2 64.61 154.69 66.07C157.95 66.94 161.37 67.26 164.71 67.83H164.72ZM157.26 86.52C162.2 86.4 164.82 85.68 168.2 85.4C174.96 84.82 175.75 79.92 177.7 74.39C178.03 73.45 177.17 72.42 176.19 72.62C167.64 74.3 159.18 73.73 150.84 71.42C147.01 70.36 143.18 70.11 139.25 70.34C133.61 70.67 128.03 70.2 122.59 68.61C119.56 67.72 116.57 66.66 113.57 65.64C111.67 65 109.78 64.6 107.88 65.54C104.17 67.36 100.46 69.2 96.77 71.07C95.99 71.47 96.07 72.83 96.7 73.59C98.51 75.78 101.01 76.81 103.6 77.48C108.08 78.64 112.6 79.71 117.15 80.5C127.96 82.37 138.79 84.09 149.62 85.81C151.78 86.15 153.99 86.23 157.25 86.53L157.26 86.52ZM83.77 105.08L84.15 105.01C83 98.53 81.99 92.03 80.67 85.59C78.81 76.5 76.12 67.63 72.61 59.02C71.89 57.25 71.02 56.91 69.16 57.56C67.55 58.12 65.95 58.72 64.37 59.38C62.81 60.03 60.78 60.38 59.87 61.56C58.53 63.31 60.61 65.06 61.06 66.85C61.18 67.32 61.36 67.78 61.47 68.25C63.63 78.26 65.83 88.26 67.91 98.28C68.7 102.09 69.21 105.96 69.91 109.78C69.98 110.14 70.52 110.54 70.92 110.66C71.11 110.72 71.63 110.2 71.74 109.86C72.11 108.71 72.22 107.43 73.53 106.86C75.24 106.12 76.22 107.27 77.25 108.33C77.75 108.84 78.3 109.39 78.93 109.68C81.46 110.83 83.77 109.29 83.76 106.54C83.76 106.05 83.76 105.56 83.76 105.08H83.77ZM70.7 125.74C70.9 127.32 71.23 130.2 71.65 133.07C71.71 133.46 72.25 133.78 72.57 134.13C72.81 133.73 73.03 133.32 73.28 132.92C74.92 130.24 76.01 129.93 77.28 132.21C78.25 133.96 79.52 134.46 81.19 134.9C82.13 135.15 82.34 136.62 81.63 137.32C80.96 137.98 80.25 138.79 79.4 139.06C78.28 139.42 77 139.22 75.83 139.43C74.35 139.7 73.31 141.44 73.72 142.7C74.18 144.12 75.76 145.09 77.13 144.79C80.88 143.96 83.11 141.63 83.51 137.84C83.79 135.18 83.87 132.5 83.97 129.83C84.04 128.03 83.41 127.61 81.27 127.84C76.72 128.33 73.77 125.91 73.59 121.5C73.59 121.27 73.63 120.99 73.76 120.8C74.02 120.41 74.28 119.93 74.67 119.76C75.01 119.61 75.71 119.68 75.9 119.93C76.48 120.69 76.81 121.64 77.41 122.39C77.79 122.86 78.44 123.21 79.03 123.35C79.26 123.4 79.87 122.77 79.96 122.38C80.41 120.19 80.81 118.08 83.48 117.39C83.97 117.26 84.34 116.33 84.58 115.7C84.73 115.29 84.68 114.69 84.47 114.3C84.32 114.02 83.7 113.77 83.39 113.85C81.55 114.35 79.91 115.18 77.78 114.92C73.37 114.38 70.63 117.14 70.7 121.49C70.72 122.46 70.7 123.43 70.7 125.73V125.74ZM53.09 70.72C47.09 71.22 42.25 71.49 37.44 72.08C35.4 72.33 32.94 72.14 31.67 74.38C31.07 75.44 33.46 75.9 37.47 75.18C40.82 74.58 44.17 73.89 47.47 73.05C49.04 72.65 50.5 71.81 53.09 70.72ZM88.75 55.41C90.85 54.41 93.24 53.28 95.6 52.09C95.65 52.06 95.49 51.19 95.24 51.06C94.62 50.73 93.83 50.29 93.22 50.43C90.75 51 89.03 52.75 87.43 54.59C87.39 54.64 87.55 54.95 87.68 55.04C87.86 55.17 88.11 55.2 88.75 55.41V55.41ZM46.58 66.04C48.97 67.09 51.1 67.38 53.06 66.22C53.38 66.03 53.7 65.38 53.61 65.05C53.52 64.71 52.85 64.23 52.57 64.3C50.56 64.81 48.58 65.44 46.59 66.04H46.58Z" fill="black"/>
<path d="M37.54 20.24C37.45 18.3 39.69 16.18 41.85 16.17C43.06 16.17 44.59 17.68 44.72 19.04C44.92 21 42.76 23 40.42 23.04C39.09 23.06 37.6 21.62 37.54 20.25V20.24Z" fill="black"/>
<path d="M54.32 16.09C52.38 16.19 50.55 14.94 50.53 13.53C50.51 11.8 52.31 10.12 54.39 9.94001C56.24 9.78001 57.66 11.13 57.58 12.96C57.5 14.8 56.25 16 54.32 16.09Z" fill="black"/>
<path d="M53.72 20.16C54.72 21.25 54.59 22.95 53.65 24.09C53.43 24.36 53.17 24.62 52.88 24.82C51.58 25.73 49.67 25.56 48.98 24.5C48.53 23.81 48.24 22.54 48.59 21.91C49.11 20.96 50.14 20.14 51.14 19.63C52.06 19.17 53.03 19.4 53.71 20.15L53.72 20.16Z" fill="black"/>
<path d="M155.56 42.8C157.24 42.82 158.77 44.42 158.66 46.04C158.57 47.43 157.28 48.48 155.66 48.48C153.73 48.48 152.36 47.09 152.62 45.38C152.84 43.95 154.17 42.78 155.56 42.8Z" fill="black"/>
<path d="M136.23 35.37C137.6 35.39 139.05 36.96 138.9 38.28C138.74 39.63 137.15 40.86 135.75 40.71C134.6 40.59 133.55 39.4 133.54 38.21C133.52 36.7 134.8 35.36 136.24 35.37H136.23Z" fill="black"/>
<path d="M135.14 43.34C136.93 43.69 137.65 46 136.26 47.18C135.94 47.45 135.56 47.62 135.19 47.66C134.16 47.75 132.88 46.74 132.6 45.62C132.35 44.61 133.56 42.99 134.62 43.24C134.81 43.28 134.98 43.32 135.14 43.35V43.34Z" fill="black"/>
<path d="M146.72 44.82C145.32 45.05 143.82 43.95 143.76 42.54C143.7 41.2 144.45 40.37 145.7 39.98C147.11 39.54 148.42 40.57 148.53 42.2C148.61 43.44 147.78 44.64 146.72 44.82V44.82Z" fill="black"/>
<path d="M142.52 47.91C143.06 46.95 144.41 46.64 145.17 47.44C145.44 47.73 145.58 48.08 145.56 48.46C145.49 49.44 145.07 50.22 143.99 50.44C143.19 50.6 142.04 49.6 142.21 48.73C142.27 48.45 142.39 48.17 142.53 47.92L142.52 47.91Z" fill="black"/>
</g>
<defs>
<clipPath id="clip0_1_38">
<rect width="186.35" height="154.21" fill="white"/>
</clipPath>
</defs>
</svg>
